<?xml version="1.0" encoding="UTF-8" standalone="no"?>
<!DOCTYPE svg PUBLIC "-//W3C//DTD SVG 1.1//EN"
 "http://www.w3.org/Graphics/SVG/1.1/DTD/svg11.dtd">
<!-- Generated by graphviz version 2.26.3 (20100126.1600)
 -->
<!-- Title: G Pages: 1 -->
<svg width="834pt" height="1296pt"
 viewBox="0.00 0.00 834.00 1296.00" xmlns="http://www.w3.org/2000/svg" xmlns:xlink="http://www.w3.org/1999/xlink">
<g id="graph1" class="graph" transform="scale(1 1) rotate(0) translate(4 1292)">
<title>G</title>
<polygon fill="white" stroke="white" points="-4,5 -4,-1292 831,-1292 831,5 -4,5"/>
<g id="graph2" class="cluster"><title>cluster_Global</title>
<polyline fill="none" stroke="gray" points="20,-98 806,-98 "/>
<path fill="none" stroke="gray" d="M806,-98C812,-98 818,-104 818,-110"/>
<polyline fill="none" stroke="gray" points="818,-110 818,-1268 "/>
<path fill="none" stroke="gray" d="M818,-1268C818,-1274 812,-1280 806,-1280"/>
<polyline fill="none" stroke="gray" points="806,-1280 20,-1280 "/>
<path fill="none" stroke="gray" d="M20,-1280C14,-1280 8,-1274 8,-1268"/>
<polyline fill="none" stroke="gray" points="8,-1268 8,-110 "/>
<path fill="none" stroke="gray" d="M8,-110C8,-104 14,-98 20,-98"/>
<text text-anchor="middle" x="413" y="-1266.1" font-family="Times Roman,serif" font-size="11.00" fill="gray">\</text>
</g>
<g id="graph3" class="cluster"><title>cluster_\Econda</title>
<polyline fill="none" stroke="gray" points="28,-258 798,-258 "/>
<path fill="none" stroke="gray" d="M798,-258C804,-258 810,-264 810,-270"/>
<polyline fill="none" stroke="gray" points="810,-270 810,-1238 "/>
<path fill="none" stroke="gray" d="M810,-1238C810,-1244 804,-1250 798,-1250"/>
<polyline fill="none" stroke="gray" points="798,-1250 28,-1250 "/>
<path fill="none" stroke="gray" d="M28,-1250C22,-1250 16,-1244 16,-1238"/>
<polyline fill="none" stroke="gray" points="16,-1238 16,-270 "/>
<path fill="none" stroke="gray" d="M16,-270C16,-264 22,-258 28,-258"/>
<text text-anchor="middle" x="413" y="-1236.1" font-family="Times Roman,serif" font-size="11.00" fill="gray">Econda</text>
</g>
<g id="graph4" class="cluster"><title>cluster_\Econda\RecEngine</title>
<polyline fill="none" stroke="gray" points="36,-432 790,-432 "/>
<path fill="none" stroke="gray" d="M790,-432C796,-432 802,-438 802,-444"/>
<polyline fill="none" stroke="gray" points="802,-444 802,-1208 "/>
<path fill="none" stroke="gray" d="M802,-1208C802,-1214 796,-1220 790,-1220"/>
<polyline fill="none" stroke="gray" points="790,-1220 36,-1220 "/>
<path fill="none" stroke="gray" d="M36,-1220C30,-1220 24,-1214 24,-1208"/>
<polyline fill="none" stroke="gray" points="24,-1208 24,-444 "/>
<path fill="none" stroke="gray" d="M24,-444C24,-438 30,-432 36,-432"/>
<text text-anchor="middle" x="413" y="-1206.1" font-family="Times Roman,serif" font-size="11.00" fill="gray">RecEngine</text>
</g>
<g id="graph5" class="cluster"><title>cluster_\Econda\RecEngine\Base</title>
<polyline fill="none" stroke="gray" points="610,-1116 782,-1116 "/>
<path fill="none" stroke="gray" d="M782,-1116C788,-1116 794,-1122 794,-1128"/>
<polyline fill="none" stroke="gray" points="794,-1128 794,-1178 "/>
<path fill="none" stroke="gray" d="M794,-1178C794,-1184 788,-1190 782,-1190"/>
<polyline fill="none" stroke="gray" points="782,-1190 610,-1190 "/>
<path fill="none" stroke="gray" d="M610,-1190C604,-1190 598,-1184 598,-1178"/>
<polyline fill="none" stroke="gray" points="598,-1178 598,-1128 "/>
<path fill="none" stroke="gray" d="M598,-1128C598,-1122 604,-1116 610,-1116"/>
<text text-anchor="middle" x="696" y="-1176.1" font-family="Times Roman,serif" font-size="11.00" fill="gray">Base</text>
</g>
<g id="graph6" class="cluster"><title>cluster_\Econda\RecEngine\Client</title>
<polyline fill="none" stroke="gray" points="648,-812 744,-812 "/>
<path fill="none" stroke="gray" d="M744,-812C750,-812 756,-818 756,-824"/>
<polyline fill="none" stroke="gray" points="756,-824 756,-1096 "/>
<path fill="none" stroke="gray" d="M756,-1096C756,-1102 750,-1108 744,-1108"/>
<polyline fill="none" stroke="gray" points="744,-1108 648,-1108 "/>
<path fill="none" stroke="gray" d="M648,-1108C642,-1108 636,-1102 636,-1096"/>
<polyline fill="none" stroke="gray" points="636,-1096 636,-824 "/>
<path fill="none" stroke="gray" d="M636,-824C636,-818 642,-812 648,-812"/>
<text text-anchor="middle" x="696" y="-1094.1" font-family="Times Roman,serif" font-size="11.00" fill="gray">Client</text>
</g>
<g id="graph7" class="cluster"><title>cluster_\Econda\RecEngine\Client\Request</title>
<polyline fill="none" stroke="gray" points="656,-920 736,-920 "/>
<path fill="none" stroke="gray" d="M736,-920C742,-920 748,-926 748,-932"/>
<polyline fill="none" stroke="gray" points="748,-932 748,-1066 "/>
<path fill="none" stroke="gray" d="M748,-1066C748,-1072 742,-1078 736,-1078"/>
<polyline fill="none" stroke="gray" points="736,-1078 656,-1078 "/>
<path fill="none" stroke="gray" d="M656,-1078C650,-1078 644,-1072 644,-1066"/>
<polyline fill="none" stroke="gray" points="644,-1066 644,-932 "/>
<path fill="none" stroke="gray" d="M644,-932C644,-926 650,-920 656,-920"/>
<text text-anchor="middle" x="696" y="-1064.1" font-family="Times Roman,serif" font-size="11.00" fill="gray">Request</text>
</g>
<g id="graph8" class="cluster"><title>cluster_\Econda\RecEngine\Client\Request\Context</title>
<polyline fill="none" stroke="gray" points="664,-974 728,-974 "/>
<path fill="none" stroke="gray" d="M728,-974C734,-974 740,-980 740,-986"/>
<polyline fill="none" stroke="gray" points="740,-986 740,-1036 "/>
<path fill="none" stroke="gray" d="M740,-1036C740,-1042 734,-1048 728,-1048"/>
<polyline fill="none" stroke="gray" points="728,-1048 664,-1048 "/>
<path fill="none" stroke="gray" d="M664,-1048C658,-1048 652,-1042 652,-1036"/>
<polyline fill="none" stroke="gray" points="652,-1036 652,-986 "/>
<path fill="none" stroke="gray" d="M652,-986C652,-980 658,-974 664,-974"/>
<text text-anchor="middle" x="696" y="-1034.1" font-family="Times Roman,serif" font-size="11.00" fill="gray">Context</text>
</g>
<g id="graph9" class="cluster"><title>cluster_\Econda\RecEngine\Widget</title>
<polyline fill="none" stroke="gray" points="44,-858 450,-858 "/>
<path fill="none" stroke="gray" d="M450,-858C456,-858 462,-864 462,-870"/>
<polyline fill="none" stroke="gray" points="462,-870 462,-1040 "/>
<path fill="none" stroke="gray" d="M462,-1040C462,-1046 456,-1052 450,-1052"/>
<polyline fill="none" stroke="gray" points="450,-1052 44,-1052 "/>
<path fill="none" stroke="gray" d="M44,-1052C38,-1052 32,-1046 32,-1040"/>
<polyline fill="none" stroke="gray" points="32,-1040 32,-870 "/>
<path fill="none" stroke="gray" d="M32,-870C32,-864 38,-858 44,-858"/>
<text text-anchor="middle" x="247" y="-1038.1" font-family="Times Roman,serif" font-size="11.00" fill="gray">Widget</text>
</g>
<g id="graph10" class="cluster"><title>cluster_\Econda\RecEngine\Widget\Renderer</title>
<polyline fill="none" stroke="gray" points="52,-948 435,-948 "/>
<path fill="none" stroke="gray" d="M435,-948C441,-948 447,-954 447,-960"/>
<polyline fill="none" stroke="gray" points="447,-960 447,-1010 "/>
<path fill="none" stroke="gray" d="M447,-1010C447,-1016 441,-1022 435,-1022"/>
<polyline fill="none" stroke="gray" points="435,-1022 52,-1022 "/>
<path fill="none" stroke="gray" d="M52,-1022C46,-1022 40,-1016 40,-1010"/>
<polyline fill="none" stroke="gray" points="40,-1010 40,-960 "/>
<path fill="none" stroke="gray" d="M40,-960C40,-954 46,-948 52,-948"/>
<text text-anchor="middle" x="243.5" y="-1008.1" font-family="Times Roman,serif" font-size="11.00" fill="gray">Renderer</text>
</g>
<g id="graph11" class="cluster"><title>cluster_\Econda\RecEngine\Widget\Model</title>
<polyline fill="none" stroke="gray" points="338,-866 442,-866 "/>
<path fill="none" stroke="gray" d="M442,-866C448,-866 454,-872 454,-878"/>
<polyline fill="none" stroke="gray" points="454,-878 454,-928 "/>
<path fill="none" stroke="gray" d="M454,-928C454,-934 448,-940 442,-940"/>
<polyline fill="none" stroke="gray" points="442,-940 338,-940 "/>
<path fill="none" stroke="gray" d="M338,-940C332,-940 326,-934 326,-928"/>
<polyline fill="none" stroke="gray" points="326,-928 326,-878 "/>
<path fill="none" stroke="gray" d="M326,-878C326,-872 332,-866 338,-866"/>
<text text-anchor="middle" x="390" y="-926.1" font-family="Times Roman,serif" font-size="11.00" fill="gray">Model</text>
</g>
<g id="graph12" class="cluster"><title>cluster_\Econda\RecEngine\Config</title>
<polyline fill="none" stroke="gray" points="335,-676 755,-676 "/>
<path fill="none" stroke="gray" d="M755,-676C761,-676 767,-682 767,-688"/>
<polyline fill="none" stroke="gray" points="767,-688 767,-792 "/>
<path fill="none" stroke="gray" d="M767,-792C767,-798 761,-804 755,-804"/>
<polyline fill="none" stroke="gray" points="755,-804 335,-804 "/>
<path fill="none" stroke="gray" d="M335,-804C329,-804 323,-798 323,-792"/>
<polyline fill="none" stroke="gray" points="323,-792 323,-688 "/>
<path fill="none" stroke="gray" d="M323,-688C323,-682 329,-676 335,-676"/>
<text text-anchor="middle" x="545" y="-790.1" font-family="Times Roman,serif" font-size="11.00" fill="gray">Config</text>
</g>
<g id="graph13" class="cluster"><title>cluster_\Econda\RecEngine\Exception</title>
<polyline fill="none" stroke="gray" points="610,-540 782,-540 "/>
<path fill="none" stroke="gray" d="M782,-540C788,-540 794,-546 794,-552"/>
<polyline fill="none" stroke="gray" points="794,-552 794,-656 "/>
<path fill="none" stroke="gray" d="M794,-656C794,-662 788,-668 782,-668"/>
<polyline fill="none" stroke="gray" points="782,-668 610,-668 "/>
<path fill="none" stroke="gray" d="M610,-668C604,-668 598,-662 598,-656"/>
<polyline fill="none" stroke="gray" points="598,-656 598,-552 "/>
<path fill="none" stroke="gray" d="M598,-552C598,-546 604,-540 610,-540"/>
<text text-anchor="middle" x="696" y="-654.1" font-family="Times Roman,serif" font-size="11.00" fill="gray">Exception</text>
</g>
<g id="graph14" class="cluster"><title>cluster_\Econda\ProductFeed</title>
<polyline fill="none" stroke="gray" points="650,-266 742,-266 "/>
<path fill="none" stroke="gray" d="M742,-266C748,-266 754,-272 754,-278"/>
<polyline fill="none" stroke="gray" points="754,-278 754,-412 "/>
<path fill="none" stroke="gray" d="M754,-412C754,-418 748,-424 742,-424"/>
<polyline fill="none" stroke="gray" points="742,-424 650,-424 "/>
<path fill="none" stroke="gray" d="M650,-424C644,-424 638,-418 638,-412"/>
<polyline fill="none" stroke="gray" points="638,-412 638,-278 "/>
<path fill="none" stroke="gray" d="M638,-278C638,-272 644,-266 650,-266"/>
<text text-anchor="middle" x="696" y="-410.1" font-family="Times Roman,serif" font-size="11.00" fill="gray">ProductFeed</text>
</g>
<g id="graph15" class="cluster"><title>cluster_\Econda\ProductFeed\Description</title>
<polyline fill="none" stroke="gray" points="658,-320 734,-320 "/>
<path fill="none" stroke="gray" d="M734,-320C740,-320 746,-326 746,-332"/>
<polyline fill="none" stroke="gray" points="746,-332 746,-382 "/>
<path fill="none" stroke="gray" d="M746,-382C746,-388 740,-394 734,-394"/>
<polyline fill="none" stroke="gray" points="734,-394 658,-394 "/>
<path fill="none" stroke="gray" d="M658,-394C652,-394 646,-388 646,-382"/>
<polyline fill="none" stroke="gray" points="646,-382 646,-332 "/>
<path fill="none" stroke="gray" d="M646,-332C646,-326 652,-320 658,-320"/>
<text text-anchor="middle" x="696" y="-380.1" font-family="Times Roman,serif" font-size="11.00" fill="gray">Description</text>
</g>
<!-- \\Econda\\RecEngine\\Base\\StandardConstructorTrait -->
<g id="node5" class="node"><title>\\Econda\\RecEngine\\Base\\StandardConstructorTrait</title>
<polygon fill="none" stroke="black" points="785,-1160 607,-1160 607,-1124 785,-1124 785,-1160"/>
<text text-anchor="middle" x="696" y="-1139.1" font-family="Courier,monospace" font-size="11.00">StandardConstructorTrait</text>
</g>
<!-- \\Econda\\RecEngine\\Client\\Request\\Context\\Category -->
<g id="node9" class="node"><title>\\Econda\\RecEngine\\Client\\Request\\Context\\Category</title>
<polygon fill="none" stroke="black" points="731,-1018 661,-1018 661,-982 731,-982 731,-1018"/>
<text text-anchor="middle" x="696" y="-997.1" font-family="Courier,monospace" font-size="11.00">Category</text>
</g>
<!-- \\Econda\\RecEngine\\Client\\Request\\Context -->
<g id="node10" class="node"><title>\\Econda\\RecEngine\\Client\\Request\\Context</title>
<polygon fill="none" stroke="black" points="728,-964 664,-964 664,-928 728,-928 728,-964"/>
<text text-anchor="middle" x="696" y="-943.1" font-family="Courier,monospace" font-size="11.00">Context</text>
</g>
<!-- \\Econda\\RecEngine\\Client\\Response -->
<g id="node11" class="node"><title>\\Econda\\RecEngine\\Client\\Response</title>
<polygon fill="none" stroke="black" points="731,-910 661,-910 661,-874 731,-874 731,-910"/>
<text text-anchor="middle" x="696" y="-889.1" font-family="Courier,monospace" font-size="11.00">Response</text>
</g>
<!-- \\Econda\\RecEngine\\Widget\\Model\\ModelInterface -->
<g id="node18" class="node"><title>\\Econda\\RecEngine\\Widget\\Model\\ModelInterface</title>
<polygon fill="none" stroke="black" points="445,-910 335,-910 335,-874 445,-874 445,-910"/>
<text text-anchor="middle" x="390" y="-889.1" font-family="Courier,monospace" font-size="11.00">ModelInterface</text>
</g>
<!-- \\Econda\\RecEngine\\Client\\Response&#45;&gt;\\Econda\\RecEngine\\Widget\\Model\\ModelInterface -->
<g id="edge16" class="edge"><title>\\Econda\\RecEngine\\Client\\Response&#45;&gt;\\Econda\\RecEngine\\Widget\\Model\\ModelInterface</title>
<path fill="none" stroke="black" stroke-dasharray="1,5" d="M660.299,-892C610.27,-892 518.422,-892 455.813,-892"/>
<polygon fill="none" stroke="black" points="455.64,-888.5 445.64,-892 455.64,-895.5 455.64,-888.5"/>
</g>
<!-- \\Econda\\RecEngine\\Client\\Request -->
<g id="node12" class="node"><title>\\Econda\\RecEngine\\Client\\Request</title>
<polygon fill="none" stroke="black" points="728,-856 664,-856 664,-820 728,-820 728,-856"/>
<text text-anchor="middle" x="696" y="-835.1" font-family="Courier,monospace" font-size="11.00">Request</text>
</g>
<!-- \\Econda\\RecEngine\\Widget\\Renderer\\HtmlRenderer -->
<g id="node15" class="node"><title>\\Econda\\RecEngine\\Widget\\Renderer\\HtmlRenderer</title>
<polygon fill="none" stroke="black" points="439,-992 341,-992 341,-956 439,-956 439,-992"/>
<text text-anchor="middle" x="390" y="-971.1" font-family="Courier,monospace" font-size="11.00">HtmlRenderer</text>
</g>
<!-- \\Econda\\RecEngine\\Widget\\Renderer\\AbstractRenderer -->
<g id="node16" class="node"><title>\\Econda\\RecEngine\\Widget\\Renderer\\AbstractRenderer</title>
<polygon fill="none" stroke="black" points="174,-992 48,-992 48,-956 174,-956 174,-992"/>
<text text-anchor="start" x="77" y="-979.433" font-family="Courier,monospace" font-size="11.00">«abstract»</text>
<text text-anchor="start" x="56.5" y="-966.233" font-family="Courier,monospace" font-size="11.00">AbstractRenderer</text>
</g>
<!-- \\Econda\\RecEngine\\Widget\\Renderer\\HtmlRenderer&#45;&gt;\\Econda\\RecEngine\\Widget\\Renderer\\AbstractRenderer -->
<g id="edge18" class="edge"><title>\\Econda\\RecEngine\\Widget\\Renderer\\HtmlRenderer&#45;&gt;\\Econda\\RecEngine\\Widget\\Renderer\\AbstractRenderer</title>
<path fill="none" stroke="black" d="M340.763,-974C297.459,-974 233.821,-974 184.492,-974"/>
<polygon fill="none" stroke="black" points="184.196,-970.5 174.196,-974 184.196,-977.5 184.196,-970.5"/>
</g>
<!-- \\Econda\\RecEngine\\Config\\ArrayConfig -->
<g id="node20" class="node"><title>\\Econda\\RecEngine\\Config\\ArrayConfig</title>
<polygon fill="none" stroke="black" points="741,-774 651,-774 651,-738 741,-738 741,-774"/>
<text text-anchor="middle" x="696" y="-753.1" font-family="Courier,monospace" font-size="11.00">ArrayConfig</text>
</g>
<!-- \\Econda\\RecEngine\\Config\\ConfigInterface -->
<g id="node21" class="node"><title>\\Econda\\RecEngine\\Config\\ConfigInterface</title>
<polygon fill="none" stroke="black" points="449,-774 331,-774 331,-738 449,-738 449,-774"/>
<text text-anchor="middle" x="390" y="-753.1" font-family="Courier,monospace" font-size="11.00">ConfigInterface</text>
</g>
<!-- \\Econda\\RecEngine\\Config\\ArrayConfig&#45;&gt;\\Econda\\RecEngine\\Config\\ConfigInterface -->
<g id="edge20" class="edge"><title>\\Econda\\RecEngine\\Config\\ArrayConfig&#45;&gt;\\Econda\\RecEngine\\Config\\ConfigInterface</title>
<path fill="none" stroke="black" stroke-dasharray="1,5" d="M650.189,-756C599.701,-756 517.919,-756 459.522,-756"/>
<polygon fill="none" stroke="black" points="459.268,-752.5 449.268,-756 459.268,-759.5 459.268,-752.5"/>
</g>
<!-- \\Econda\\RecEngine\\Config\\ConfigAwareTrait -->
<g id="node22" class="node"><title>\\Econda\\RecEngine\\Config\\ConfigAwareTrait</title>
<polygon fill="none" stroke="black" points="758,-720 634,-720 634,-684 758,-684 758,-720"/>
<text text-anchor="middle" x="696" y="-699.1" font-family="Courier,monospace" font-size="11.00">ConfigAwareTrait</text>
</g>
<!-- \\Econda\\RecEngine\\Exception\\InvalidArgumentException -->
<g id="node24" class="node"><title>\\Econda\\RecEngine\\Exception\\InvalidArgumentException</title>
<polygon fill="none" stroke="black" points="785,-638 607,-638 607,-602 785,-602 785,-638"/>
<text text-anchor="middle" x="696" y="-617.1" font-family="Courier,monospace" font-size="11.00">InvalidArgumentException</text>
</g>
<!-- \\InvalidArgumentException -->
<g id="node39" class="node"><title>\\InvalidArgumentException</title>
<ellipse fill="none" stroke="black" cx="390" cy="-72" rx="143.043" ry="18.3848"/>
<text text-anchor="middle" x="390" y="-68.4" font-family="Times Roman,serif" font-size="14.00" fill="gray">\InvalidArgumentException</text>
</g>
<!-- \\Econda\\RecEngine\\Exception\\InvalidArgumentException&#45;&gt;\\InvalidArgumentException -->
<g id="edge22" class="edge"><title>\\Econda\\RecEngine\\Exception\\InvalidArgumentException&#45;&gt;\\InvalidArgumentException</title>
<path fill="none" stroke="black" d="M610.024,-601.739C605.732,-599.192 601.683,-596.295 598,-593 443.825,-455.055 402.299,-187.331 392.628,-100.168"/>
<polygon fill="none" stroke="black" points="396.085,-99.5768 391.555,-89.9991 389.123,-100.311 396.085,-99.5768"/>
</g>
<!-- \\Econda\\RecEngine\\Exception\\RuntimeException -->
<g id="node25" class="node"><title>\\Econda\\RecEngine\\Exception\\RuntimeException</title>
<polygon fill="none" stroke="black" points="758,-584 634,-584 634,-548 758,-548 758,-584"/>
<text text-anchor="middle" x="696" y="-563.1" font-family="Courier,monospace" font-size="11.00">RuntimeException</text>
</g>
<!-- \\RuntimeException -->
<g id="node41" class="node"><title>\\RuntimeException</title>
<ellipse fill="none" stroke="black" cx="390" cy="-18" rx="103.238" ry="18.3848"/>
<text text-anchor="middle" x="390" y="-14.4" font-family="Times Roman,serif" font-size="14.00" fill="gray">\RuntimeException</text>
</g>
<!-- \\Econda\\RecEngine\\Exception\\RuntimeException&#45;&gt;\\RuntimeException -->
<g id="edge24" class="edge"><title>\\Econda\\RecEngine\\Exception\\RuntimeException&#45;&gt;\\RuntimeException</title>
<path fill="none" stroke="black" d="M633.287,-563.532C619.997,-560.102 607.217,-554.12 598,-544 447.437,-378.696 687.472,-207.607 534,-45 525.115,-35.5856 514.071,-28.8474 502.078,-24.0933"/>
<polygon fill="none" stroke="black" points="502.874,-20.6649 492.279,-20.6928 500.579,-27.278 502.874,-20.6649"/>
</g>
<!-- \\Econda\\RecEngine\\Widget -->
<g id="node26" class="node"><title>\\Econda\\RecEngine\\Widget</title>
<polygon fill="none" stroke="black" points="724,-530 668,-530 668,-494 724,-494 724,-530"/>
<text text-anchor="middle" x="696" y="-509.1" font-family="Courier,monospace" font-size="11.00">Widget</text>
</g>
<!-- \\Econda\\RecEngine\\Client -->
<g id="node27" class="node"><title>\\Econda\\RecEngine\\Client</title>
<polygon fill="none" stroke="black" points="724,-476 668,-476 668,-440 724,-440 724,-476"/>
<text text-anchor="middle" x="696" y="-455.1" font-family="Courier,monospace" font-size="11.00">Client</text>
</g>
<!-- \\Econda\\ProductFeed\\Description\\DataSource -->
<g id="node30" class="node"><title>\\Econda\\ProductFeed\\Description\\DataSource</title>
<polygon fill="none" stroke="black" points="738,-364 654,-364 654,-328 738,-328 738,-364"/>
<text text-anchor="middle" x="696" y="-343.1" font-family="Courier,monospace" font-size="11.00">DataSource</text>
</g>
<!-- \\Econda\\ProductFeed\\Description -->
<g id="node31" class="node"><title>\\Econda\\ProductFeed\\Description</title>
<polygon fill="none" stroke="black" points="741,-310 651,-310 651,-274 741,-274 741,-310"/>
<text text-anchor="middle" x="696" y="-289.1" font-family="Courier,monospace" font-size="11.00">Description</text>
</g>
<!-- \\AbstractField -->
<g id="node32" class="node"><title>\\AbstractField</title>
<polygon fill="none" stroke="black" points="748,-250 644,-250 644,-214 748,-214 748,-250"/>
<text text-anchor="start" x="662" y="-237.433" font-family="Courier,monospace" font-size="11.00">«abstract»</text>
<text text-anchor="start" x="652" y="-224.233" font-family="Courier,monospace" font-size="11.00">AbstractField</text>
</g>
<!-- \\Client -->
<g id="node33" class="node"><title>\\Client</title>
<polygon fill="none" stroke="black" points="724,-196 668,-196 668,-160 724,-160 724,-196"/>
<text text-anchor="middle" x="696" y="-175.1" font-family="Courier,monospace" font-size="11.00">Client</text>
</g>
<!-- \\CatalogInfo -->
<g id="node34" class="node"><title>\\CatalogInfo</title>
<polygon fill="none" stroke="black" points="741,-142 651,-142 651,-106 741,-106 741,-142"/>
<text text-anchor="middle" x="696" y="-121.1" font-family="Courier,monospace" font-size="11.00">CatalogInfo</text>
</g>
</g>
</svg>
