<?xml version="1.0" encoding="UTF-8" standalone="no"?>
<!DOCTYPE svg PUBLIC "-//W3C//DTD SVG 1.1//EN"
 "http://www.w3.org/Graphics/SVG/1.1/DTD/svg11.dtd">
<!-- Generated by graphviz version 2.26.3 (20100126.1600)
 -->
<!-- Title: G Pages: 1 -->
<svg width="834pt" height="1130pt"
 viewBox="0.00 0.00 834.00 1130.00" xmlns="http://www.w3.org/2000/svg" xmlns:xlink="http://www.w3.org/1999/xlink">
<g id="graph1" class="graph" transform="scale(1 1) rotate(0) translate(4 1126)">
<title>G</title>
<polygon fill="white" stroke="white" points="-4,5 -4,-1126 831,-1126 831,5 -4,5"/>
<g id="graph2" class="cluster"><title>cluster_Global</title>
<polyline fill="none" stroke="gray" points="20,-98 806,-98 "/>
<path fill="none" stroke="gray" d="M806,-98C812,-98 818,-104 818,-110"/>
<polyline fill="none" stroke="gray" points="818,-110 818,-1102 "/>
<path fill="none" stroke="gray" d="M818,-1102C818,-1108 812,-1114 806,-1114"/>
<polyline fill="none" stroke="gray" points="806,-1114 20,-1114 "/>
<path fill="none" stroke="gray" d="M20,-1114C14,-1114 8,-1108 8,-1102"/>
<polyline fill="none" stroke="gray" points="8,-1102 8,-110 "/>
<path fill="none" stroke="gray" d="M8,-110C8,-104 14,-98 20,-98"/>
<text text-anchor="middle" x="413" y="-1100.1" font-family="Times Roman,serif" font-size="11.00" fill="gray">\</text>
</g>
<g id="graph3" class="cluster"><title>cluster_\Econda</title>
<polyline fill="none" stroke="gray" points="28,-258 798,-258 "/>
<path fill="none" stroke="gray" d="M798,-258C804,-258 810,-264 810,-270"/>
<polyline fill="none" stroke="gray" points="810,-270 810,-1072 "/>
<path fill="none" stroke="gray" d="M810,-1072C810,-1078 804,-1084 798,-1084"/>
<polyline fill="none" stroke="gray" points="798,-1084 28,-1084 "/>
<path fill="none" stroke="gray" d="M28,-1084C22,-1084 16,-1078 16,-1072"/>
<polyline fill="none" stroke="gray" points="16,-1072 16,-270 "/>
<path fill="none" stroke="gray" d="M16,-270C16,-264 22,-258 28,-258"/>
<text text-anchor="middle" x="413" y="-1070.1" font-family="Times Roman,serif" font-size="11.00" fill="gray">Econda</text>
</g>
<g id="graph4" class="cluster"><title>cluster_\Econda\RecEngine</title>
<polyline fill="none" stroke="gray" points="36,-432 790,-432 "/>
<path fill="none" stroke="gray" d="M790,-432C796,-432 802,-438 802,-444"/>
<polyline fill="none" stroke="gray" points="802,-444 802,-1042 "/>
<path fill="none" stroke="gray" d="M802,-1042C802,-1048 796,-1054 790,-1054"/>
<polyline fill="none" stroke="gray" points="790,-1054 36,-1054 "/>
<path fill="none" stroke="gray" d="M36,-1054C30,-1054 24,-1048 24,-1042"/>
<polyline fill="none" stroke="gray" points="24,-1042 24,-444 "/>
<path fill="none" stroke="gray" d="M24,-444C24,-438 30,-432 36,-432"/>
<text text-anchor="middle" x="413" y="-1040.1" font-family="Times Roman,serif" font-size="11.00" fill="gray">RecEngine</text>
</g>
<g id="graph5" class="cluster"><title>cluster_\Econda\RecEngine\Client</title>
<polyline fill="none" stroke="gray" points="660,-812 732,-812 "/>
<path fill="none" stroke="gray" d="M732,-812C738,-812 744,-818 744,-824"/>
<polyline fill="none" stroke="gray" points="744,-824 744,-1012 "/>
<path fill="none" stroke="gray" d="M744,-1012C744,-1018 738,-1024 732,-1024"/>
<polyline fill="none" stroke="gray" points="732,-1024 660,-1024 "/>
<path fill="none" stroke="gray" d="M660,-1024C654,-1024 648,-1018 648,-1012"/>
<polyline fill="none" stroke="gray" points="648,-1012 648,-824 "/>
<path fill="none" stroke="gray" d="M648,-824C648,-818 654,-812 660,-812"/>
<text text-anchor="middle" x="696" y="-1010.1" font-family="Times Roman,serif" font-size="11.00" fill="gray">Client</text>
</g>
<g id="graph6" class="cluster"><title>cluster_\Econda\RecEngine\Client\Request</title>
<polyline fill="none" stroke="gray" points="668,-920 724,-920 "/>
<path fill="none" stroke="gray" d="M724,-920C730,-920 736,-926 736,-932"/>
<polyline fill="none" stroke="gray" points="736,-932 736,-982 "/>
<path fill="none" stroke="gray" d="M736,-982C736,-988 730,-994 724,-994"/>
<polyline fill="none" stroke="gray" points="724,-994 668,-994 "/>
<path fill="none" stroke="gray" d="M668,-994C662,-994 656,-988 656,-982"/>
<polyline fill="none" stroke="gray" points="656,-982 656,-932 "/>
<path fill="none" stroke="gray" d="M656,-932C656,-926 662,-920 668,-920"/>
<text text-anchor="middle" x="696" y="-980.1" font-family="Times Roman,serif" font-size="11.00" fill="gray">Request</text>
</g>
<g id="graph7" class="cluster"><title>cluster_\Econda\RecEngine\Widget</title>
<polyline fill="none" stroke="gray" points="44,-830 450,-830 "/>
<path fill="none" stroke="gray" d="M450,-830C456,-830 462,-836 462,-842"/>
<polyline fill="none" stroke="gray" points="462,-842 462,-1012 "/>
<path fill="none" stroke="gray" d="M462,-1012C462,-1018 456,-1024 450,-1024"/>
<polyline fill="none" stroke="gray" points="450,-1024 44,-1024 "/>
<path fill="none" stroke="gray" d="M44,-1024C38,-1024 32,-1018 32,-1012"/>
<polyline fill="none" stroke="gray" points="32,-1012 32,-842 "/>
<path fill="none" stroke="gray" d="M32,-842C32,-836 38,-830 44,-830"/>
<text text-anchor="middle" x="247" y="-1010.1" font-family="Times Roman,serif" font-size="11.00" fill="gray">Widget</text>
</g>
<g id="graph8" class="cluster"><title>cluster_\Econda\RecEngine\Widget\Renderer</title>
<polyline fill="none" stroke="gray" points="52,-920 435,-920 "/>
<path fill="none" stroke="gray" d="M435,-920C441,-920 447,-926 447,-932"/>
<polyline fill="none" stroke="gray" points="447,-932 447,-982 "/>
<path fill="none" stroke="gray" d="M447,-982C447,-988 441,-994 435,-994"/>
<polyline fill="none" stroke="gray" points="435,-994 52,-994 "/>
<path fill="none" stroke="gray" d="M52,-994C46,-994 40,-988 40,-982"/>
<polyline fill="none" stroke="gray" points="40,-982 40,-932 "/>
<path fill="none" stroke="gray" d="M40,-932C40,-926 46,-920 52,-920"/>
<text text-anchor="middle" x="243.5" y="-980.1" font-family="Times Roman,serif" font-size="11.00" fill="gray">Renderer</text>
</g>
<g id="graph9" class="cluster"><title>cluster_\Econda\RecEngine\Widget\Model</title>
<polyline fill="none" stroke="gray" points="338,-838 442,-838 "/>
<path fill="none" stroke="gray" d="M442,-838C448,-838 454,-844 454,-850"/>
<polyline fill="none" stroke="gray" points="454,-850 454,-900 "/>
<path fill="none" stroke="gray" d="M454,-900C454,-906 448,-912 442,-912"/>
<polyline fill="none" stroke="gray" points="442,-912 338,-912 "/>
<path fill="none" stroke="gray" d="M338,-912C332,-912 326,-906 326,-900"/>
<polyline fill="none" stroke="gray" points="326,-900 326,-850 "/>
<path fill="none" stroke="gray" d="M326,-850C326,-844 332,-838 338,-838"/>
<text text-anchor="middle" x="390" y="-898.1" font-family="Times Roman,serif" font-size="11.00" fill="gray">Model</text>
</g>
<g id="graph10" class="cluster"><title>cluster_\Econda\RecEngine\Config</title>
<polyline fill="none" stroke="gray" points="335,-676 755,-676 "/>
<path fill="none" stroke="gray" d="M755,-676C761,-676 767,-682 767,-688"/>
<polyline fill="none" stroke="gray" points="767,-688 767,-792 "/>
<path fill="none" stroke="gray" d="M767,-792C767,-798 761,-804 755,-804"/>
<polyline fill="none" stroke="gray" points="755,-804 335,-804 "/>
<path fill="none" stroke="gray" d="M335,-804C329,-804 323,-798 323,-792"/>
<polyline fill="none" stroke="gray" points="323,-792 323,-688 "/>
<path fill="none" stroke="gray" d="M323,-688C323,-682 329,-676 335,-676"/>
<text text-anchor="middle" x="545" y="-790.1" font-family="Times Roman,serif" font-size="11.00" fill="gray">Config</text>
</g>
<g id="graph11" class="cluster"><title>cluster_\Econda\RecEngine\Exception</title>
<polyline fill="none" stroke="gray" points="610,-540 782,-540 "/>
<path fill="none" stroke="gray" d="M782,-540C788,-540 794,-546 794,-552"/>
<polyline fill="none" stroke="gray" points="794,-552 794,-656 "/>
<path fill="none" stroke="gray" d="M794,-656C794,-662 788,-668 782,-668"/>
<polyline fill="none" stroke="gray" points="782,-668 610,-668 "/>
<path fill="none" stroke="gray" d="M610,-668C604,-668 598,-662 598,-656"/>
<polyline fill="none" stroke="gray" points="598,-656 598,-552 "/>
<path fill="none" stroke="gray" d="M598,-552C598,-546 604,-540 610,-540"/>
<text text-anchor="middle" x="696" y="-654.1" font-family="Times Roman,serif" font-size="11.00" fill="gray">Exception</text>
</g>
<g id="graph12" class="cluster"><title>cluster_\Econda\ProductFeed</title>
<polyline fill="none" stroke="gray" points="650,-266 742,-266 "/>
<path fill="none" stroke="gray" d="M742,-266C748,-266 754,-272 754,-278"/>
<polyline fill="none" stroke="gray" points="754,-278 754,-412 "/>
<path fill="none" stroke="gray" d="M754,-412C754,-418 748,-424 742,-424"/>
<polyline fill="none" stroke="gray" points="742,-424 650,-424 "/>
<path fill="none" stroke="gray" d="M650,-424C644,-424 638,-418 638,-412"/>
<polyline fill="none" stroke="gray" points="638,-412 638,-278 "/>
<path fill="none" stroke="gray" d="M638,-278C638,-272 644,-266 650,-266"/>
<text text-anchor="middle" x="696" y="-410.1" font-family="Times Roman,serif" font-size="11.00" fill="gray">ProductFeed</text>
</g>
<g id="graph13" class="cluster"><title>cluster_\Econda\ProductFeed\Description</title>
<polyline fill="none" stroke="gray" points="658,-320 734,-320 "/>
<path fill="none" stroke="gray" d="M734,-320C740,-320 746,-326 746,-332"/>
<polyline fill="none" stroke="gray" points="746,-332 746,-382 "/>
<path fill="none" stroke="gray" d="M746,-382C746,-388 740,-394 734,-394"/>
<polyline fill="none" stroke="gray" points="734,-394 658,-394 "/>
<path fill="none" stroke="gray" d="M658,-394C652,-394 646,-388 646,-382"/>
<polyline fill="none" stroke="gray" points="646,-382 646,-332 "/>
<path fill="none" stroke="gray" d="M646,-332C646,-326 652,-320 658,-320"/>
<text text-anchor="middle" x="696" y="-380.1" font-family="Times Roman,serif" font-size="11.00" fill="gray">Description</text>
</g>
<!-- \\Econda\\RecEngine\\Client\\Request\\Context -->
<g id="node6" class="node"><title>\\Econda\\RecEngine\\Client\\Request\\Context</title>
<polygon fill="none" stroke="black" points="728,-964 664,-964 664,-928 728,-928 728,-964"/>
<text text-anchor="middle" x="696" y="-943.1" font-family="Courier,monospace" font-size="11.00">Context</text>
</g>
<!-- \\Econda\\RecEngine\\Client\\Response -->
<g id="node7" class="node"><title>\\Econda\\RecEngine\\Client\\Response</title>
<polygon fill="none" stroke="black" points="731,-910 661,-910 661,-874 731,-874 731,-910"/>
<text text-anchor="middle" x="696" y="-889.1" font-family="Courier,monospace" font-size="11.00">Response</text>
</g>
<!-- \\Econda\\RecEngine\\Widget\\Model\\ModelInterface -->
<g id="node14" class="node"><title>\\Econda\\RecEngine\\Widget\\Model\\ModelInterface</title>
<polygon fill="none" stroke="black" points="445,-882 335,-882 335,-846 445,-846 445,-882"/>
<text text-anchor="middle" x="390" y="-861.1" font-family="Courier,monospace" font-size="11.00">ModelInterface</text>
</g>
<!-- \\Econda\\RecEngine\\Client\\Response&#45;&gt;\\Econda\\RecEngine\\Widget\\Model\\ModelInterface -->
<g id="edge14" class="edge"><title>\\Econda\\RecEngine\\Client\\Response&#45;&gt;\\Econda\\RecEngine\\Widget\\Model\\ModelInterface</title>
<path fill="none" stroke="black" stroke-dasharray="1,5" d="M660.299,-888.733C610.27,-884.155 518.422,-875.751 455.813,-870.022"/>
<polygon fill="none" stroke="black" points="455.918,-866.517 445.64,-869.091 455.28,-873.488 455.918,-866.517"/>
</g>
<!-- \\Econda\\RecEngine\\Client\\Request -->
<g id="node8" class="node"><title>\\Econda\\RecEngine\\Client\\Request</title>
<polygon fill="none" stroke="black" points="728,-856 664,-856 664,-820 728,-820 728,-856"/>
<text text-anchor="middle" x="696" y="-835.1" font-family="Courier,monospace" font-size="11.00">Request</text>
</g>
<!-- \\Econda\\RecEngine\\Widget\\Renderer\\HtmlRenderer -->
<g id="node11" class="node"><title>\\Econda\\RecEngine\\Widget\\Renderer\\HtmlRenderer</title>
<polygon fill="none" stroke="black" points="439,-964 341,-964 341,-928 439,-928 439,-964"/>
<text text-anchor="middle" x="390" y="-943.1" font-family="Courier,monospace" font-size="11.00">HtmlRenderer</text>
</g>
<!-- \\Econda\\RecEngine\\Widget\\Renderer\\AbstractRenderer -->
<g id="node12" class="node"><title>\\Econda\\RecEngine\\Widget\\Renderer\\AbstractRenderer</title>
<polygon fill="none" stroke="black" points="174,-964 48,-964 48,-928 174,-928 174,-964"/>
<text text-anchor="start" x="77" y="-951.433" font-family="Courier,monospace" font-size="11.00">«abstract»</text>
<text text-anchor="start" x="56.5" y="-938.233" font-family="Courier,monospace" font-size="11.00">AbstractRenderer</text>
</g>
<!-- \\Econda\\RecEngine\\Widget\\Renderer\\HtmlRenderer&#45;&gt;\\Econda\\RecEngine\\Widget\\Renderer\\AbstractRenderer -->
<g id="edge16" class="edge"><title>\\Econda\\RecEngine\\Widget\\Renderer\\HtmlRenderer&#45;&gt;\\Econda\\RecEngine\\Widget\\Renderer\\AbstractRenderer</title>
<path fill="none" stroke="black" d="M340.763,-946C297.459,-946 233.821,-946 184.492,-946"/>
<polygon fill="none" stroke="black" points="184.196,-942.5 174.196,-946 184.196,-949.5 184.196,-942.5"/>
</g>
<!-- \\Econda\\RecEngine\\Config\\ArrayConfig -->
<g id="node16" class="node"><title>\\Econda\\RecEngine\\Config\\ArrayConfig</title>
<polygon fill="none" stroke="black" points="741,-774 651,-774 651,-738 741,-738 741,-774"/>
<text text-anchor="middle" x="696" y="-753.1" font-family="Courier,monospace" font-size="11.00">ArrayConfig</text>
</g>
<!-- \\Econda\\RecEngine\\Config\\ConfigInterface -->
<g id="node17" class="node"><title>\\Econda\\RecEngine\\Config\\ConfigInterface</title>
<polygon fill="none" stroke="black" points="449,-774 331,-774 331,-738 449,-738 449,-774"/>
<text text-anchor="middle" x="390" y="-753.1" font-family="Courier,monospace" font-size="11.00">ConfigInterface</text>
</g>
<!-- \\Econda\\RecEngine\\Config\\ArrayConfig&#45;&gt;\\Econda\\RecEngine\\Config\\ConfigInterface -->
<g id="edge18" class="edge"><title>\\Econda\\RecEngine\\Config\\ArrayConfig&#45;&gt;\\Econda\\RecEngine\\Config\\ConfigInterface</title>
<path fill="none" stroke="black" stroke-dasharray="1,5" d="M650.189,-756C599.701,-756 517.919,-756 459.522,-756"/>
<polygon fill="none" stroke="black" points="459.268,-752.5 449.268,-756 459.268,-759.5 459.268,-752.5"/>
</g>
<!-- \\Econda\\RecEngine\\Config\\ConfigAwareTrait -->
<g id="node18" class="node"><title>\\Econda\\RecEngine\\Config\\ConfigAwareTrait</title>
<polygon fill="none" stroke="black" points="758,-720 634,-720 634,-684 758,-684 758,-720"/>
<text text-anchor="middle" x="696" y="-699.1" font-family="Courier,monospace" font-size="11.00">ConfigAwareTrait</text>
</g>
<!-- \\Econda\\RecEngine\\Exception\\InvalidArgumentException -->
<g id="node20" class="node"><title>\\Econda\\RecEngine\\Exception\\InvalidArgumentException</title>
<polygon fill="none" stroke="black" points="785,-638 607,-638 607,-602 785,-602 785,-638"/>
<text text-anchor="middle" x="696" y="-617.1" font-family="Courier,monospace" font-size="11.00">InvalidArgumentException</text>
</g>
<!-- \\InvalidArgumentException -->
<g id="node35" class="node"><title>\\InvalidArgumentException</title>
<ellipse fill="none" stroke="black" cx="390" cy="-72" rx="143.043" ry="18.3848"/>
<text text-anchor="middle" x="390" y="-68.4" font-family="Times Roman,serif" font-size="14.00" fill="gray">\InvalidArgumentException</text>
</g>
<!-- \\Econda\\RecEngine\\Exception\\InvalidArgumentException&#45;&gt;\\InvalidArgumentException -->
<g id="edge20" class="edge"><title>\\Econda\\RecEngine\\Exception\\InvalidArgumentException&#45;&gt;\\InvalidArgumentException</title>
<path fill="none" stroke="black" d="M610.024,-601.739C605.732,-599.192 601.683,-596.295 598,-593 443.825,-455.055 402.299,-187.331 392.628,-100.168"/>
<polygon fill="none" stroke="black" points="396.085,-99.5768 391.555,-89.9991 389.123,-100.311 396.085,-99.5768"/>
</g>
<!-- \\Econda\\RecEngine\\Exception\\RuntimeException -->
<g id="node21" class="node"><title>\\Econda\\RecEngine\\Exception\\RuntimeException</title>
<polygon fill="none" stroke="black" points="758,-584 634,-584 634,-548 758,-548 758,-584"/>
<text text-anchor="middle" x="696" y="-563.1" font-family="Courier,monospace" font-size="11.00">RuntimeException</text>
</g>
<!-- \\RuntimeException -->
<g id="node37" class="node"><title>\\RuntimeException</title>
<ellipse fill="none" stroke="black" cx="390" cy="-18" rx="103.238" ry="18.3848"/>
<text text-anchor="middle" x="390" y="-14.4" font-family="Times Roman,serif" font-size="14.00" fill="gray">\RuntimeException</text>
</g>
<!-- \\Econda\\RecEngine\\Exception\\RuntimeException&#45;&gt;\\RuntimeException -->
<g id="edge22" class="edge"><title>\\Econda\\RecEngine\\Exception\\RuntimeException&#45;&gt;\\RuntimeException</title>
<path fill="none" stroke="black" d="M633.287,-563.532C619.997,-560.102 607.217,-554.12 598,-544 447.437,-378.696 687.472,-207.607 534,-45 525.115,-35.5856 514.071,-28.8474 502.078,-24.0933"/>
<polygon fill="none" stroke="black" points="502.874,-20.6649 492.279,-20.6928 500.579,-27.278 502.874,-20.6649"/>
</g>
<!-- \\Econda\\RecEngine\\Widget -->
<g id="node22" class="node"><title>\\Econda\\RecEngine\\Widget</title>
<polygon fill="none" stroke="black" points="724,-530 668,-530 668,-494 724,-494 724,-530"/>
<text text-anchor="middle" x="696" y="-509.1" font-family="Courier,monospace" font-size="11.00">Widget</text>
</g>
<!-- \\Econda\\RecEngine\\Client -->
<g id="node23" class="node"><title>\\Econda\\RecEngine\\Client</title>
<polygon fill="none" stroke="black" points="724,-476 668,-476 668,-440 724,-440 724,-476"/>
<text text-anchor="middle" x="696" y="-455.1" font-family="Courier,monospace" font-size="11.00">Client</text>
</g>
<!-- \\Econda\\ProductFeed\\Description\\DataSource -->
<g id="node26" class="node"><title>\\Econda\\ProductFeed\\Description\\DataSource</title>
<polygon fill="none" stroke="black" points="738,-364 654,-364 654,-328 738,-328 738,-364"/>
<text text-anchor="middle" x="696" y="-343.1" font-family="Courier,monospace" font-size="11.00">DataSource</text>
</g>
<!-- \\Econda\\ProductFeed\\Description -->
<g id="node27" class="node"><title>\\Econda\\ProductFeed\\Description</title>
<polygon fill="none" stroke="black" points="741,-310 651,-310 651,-274 741,-274 741,-310"/>
<text text-anchor="middle" x="696" y="-289.1" font-family="Courier,monospace" font-size="11.00">Description</text>
</g>
<!-- \\AbstractField -->
<g id="node28" class="node"><title>\\AbstractField</title>
<polygon fill="none" stroke="black" points="748,-250 644,-250 644,-214 748,-214 748,-250"/>
<text text-anchor="start" x="662" y="-237.433" font-family="Courier,monospace" font-size="11.00">«abstract»</text>
<text text-anchor="start" x="652" y="-224.233" font-family="Courier,monospace" font-size="11.00">AbstractField</text>
</g>
<!-- \\Client -->
<g id="node29" class="node"><title>\\Client</title>
<polygon fill="none" stroke="black" points="724,-196 668,-196 668,-160 724,-160 724,-196"/>
<text text-anchor="middle" x="696" y="-175.1" font-family="Courier,monospace" font-size="11.00">Client</text>
</g>
<!-- \\CatalogInfo -->
<g id="node30" class="node"><title>\\CatalogInfo</title>
<polygon fill="none" stroke="black" points="741,-142 651,-142 651,-106 741,-106 741,-142"/>
<text text-anchor="middle" x="696" y="-121.1" font-family="Courier,monospace" font-size="11.00">CatalogInfo</text>
</g>
</g>
</svg>
