<?xml version="1.0" encoding="UTF-8" standalone="no"?>
<!DOCTYPE svg PUBLIC "-//W3C//DTD SVG 1.1//EN"
 "http://www.w3.org/Graphics/SVG/1.1/DTD/svg11.dtd">
<!-- Generated by graphviz version 2.26.3 (20100126.1600)
 -->
<!-- Title: G Pages: 1 -->
<svg width="834pt" height="1236pt"
 viewBox="0.00 0.00 834.00 1236.00" xmlns="http://www.w3.org/2000/svg" xmlns:xlink="http://www.w3.org/1999/xlink">
<g id="graph1" class="graph" transform="scale(1 1) rotate(0) translate(4 1232)">
<title>G</title>
<polygon fill="white" stroke="white" points="-4,5 -4,-1232 831,-1232 831,5 -4,5"/>
<g id="graph2" class="cluster"><title>cluster_Global</title>
<polyline fill="none" stroke="gray" points="20,-98 806,-98 "/>
<path fill="none" stroke="gray" d="M806,-98C812,-98 818,-104 818,-110"/>
<polyline fill="none" stroke="gray" points="818,-110 818,-1208 "/>
<path fill="none" stroke="gray" d="M818,-1208C818,-1214 812,-1220 806,-1220"/>
<polyline fill="none" stroke="gray" points="806,-1220 20,-1220 "/>
<path fill="none" stroke="gray" d="M20,-1220C14,-1220 8,-1214 8,-1208"/>
<polyline fill="none" stroke="gray" points="8,-1208 8,-110 "/>
<path fill="none" stroke="gray" d="M8,-110C8,-104 14,-98 20,-98"/>
<text text-anchor="middle" x="413" y="-1206.1" font-family="Times Roman,serif" font-size="11.00" fill="gray">\</text>
</g>
<g id="graph3" class="cluster"><title>cluster_\Econda</title>
<polyline fill="none" stroke="gray" points="28,-106 798,-106 "/>
<path fill="none" stroke="gray" d="M798,-106C804,-106 810,-112 810,-118"/>
<polyline fill="none" stroke="gray" points="810,-118 810,-1178 "/>
<path fill="none" stroke="gray" d="M810,-1178C810,-1184 804,-1190 798,-1190"/>
<polyline fill="none" stroke="gray" points="798,-1190 28,-1190 "/>
<path fill="none" stroke="gray" d="M28,-1190C22,-1190 16,-1184 16,-1178"/>
<polyline fill="none" stroke="gray" points="16,-1178 16,-118 "/>
<path fill="none" stroke="gray" d="M16,-118C16,-112 22,-106 28,-106"/>
<text text-anchor="middle" x="413" y="-1176.1" font-family="Times Roman,serif" font-size="11.00" fill="gray">Econda</text>
</g>
<g id="graph4" class="cluster"><title>cluster_\Econda\Catalog</title>
<polyline fill="none" stroke="gray" points="639,-1002 753,-1002 "/>
<path fill="none" stroke="gray" d="M753,-1002C759,-1002 765,-1008 765,-1014"/>
<polyline fill="none" stroke="gray" points="765,-1014 765,-1148 "/>
<path fill="none" stroke="gray" d="M765,-1148C765,-1154 759,-1160 753,-1160"/>
<polyline fill="none" stroke="gray" points="753,-1160 639,-1160 "/>
<path fill="none" stroke="gray" d="M639,-1160C633,-1160 627,-1154 627,-1148"/>
<polyline fill="none" stroke="gray" points="627,-1148 627,-1014 "/>
<path fill="none" stroke="gray" d="M627,-1014C627,-1008 633,-1002 639,-1002"/>
<text text-anchor="middle" x="696" y="-1146.1" font-family="Times Roman,serif" font-size="11.00" fill="gray">Catalog</text>
</g>
<g id="graph5" class="cluster"><title>cluster_\Econda\Catalog\FieldDefinition</title>
<polyline fill="none" stroke="gray" points="647,-1056 745,-1056 "/>
<path fill="none" stroke="gray" d="M745,-1056C751,-1056 757,-1062 757,-1068"/>
<polyline fill="none" stroke="gray" points="757,-1068 757,-1118 "/>
<path fill="none" stroke="gray" d="M757,-1118C757,-1124 751,-1130 745,-1130"/>
<polyline fill="none" stroke="gray" points="745,-1130 647,-1130 "/>
<path fill="none" stroke="gray" d="M647,-1130C641,-1130 635,-1124 635,-1118"/>
<polyline fill="none" stroke="gray" points="635,-1118 635,-1068 "/>
<path fill="none" stroke="gray" d="M635,-1068C635,-1062 641,-1056 647,-1056"/>
<text text-anchor="middle" x="696" y="-1116.1" font-family="Times Roman,serif" font-size="11.00" fill="gray">FieldDefinition</text>
</g>
<g id="graph6" class="cluster"><title>cluster_\Econda\CatalogApi</title>
<polyline fill="none" stroke="gray" points="671,-920 721,-920 "/>
<path fill="none" stroke="gray" d="M721,-920C727,-920 733,-926 733,-932"/>
<polyline fill="none" stroke="gray" points="733,-932 733,-982 "/>
<path fill="none" stroke="gray" d="M733,-982C733,-988 727,-994 721,-994"/>
<polyline fill="none" stroke="gray" points="721,-994 671,-994 "/>
<path fill="none" stroke="gray" d="M671,-994C665,-994 659,-988 659,-982"/>
<polyline fill="none" stroke="gray" points="659,-982 659,-932 "/>
<path fill="none" stroke="gray" d="M659,-932C659,-926 665,-920 671,-920"/>
<text text-anchor="middle" x="696" y="-980.1" font-family="Times Roman,serif" font-size="11.00" fill="gray">CatalogApi</text>
</g>
<g id="graph7" class="cluster"><title>cluster_\Econda\ProductFeed</title>
<polyline fill="none" stroke="gray" points="650,-754 742,-754 "/>
<path fill="none" stroke="gray" d="M742,-754C748,-754 754,-760 754,-766"/>
<polyline fill="none" stroke="gray" points="754,-766 754,-900 "/>
<path fill="none" stroke="gray" d="M754,-900C754,-906 748,-912 742,-912"/>
<polyline fill="none" stroke="gray" points="742,-912 650,-912 "/>
<path fill="none" stroke="gray" d="M650,-912C644,-912 638,-906 638,-900"/>
<polyline fill="none" stroke="gray" points="638,-900 638,-766 "/>
<path fill="none" stroke="gray" d="M638,-766C638,-760 644,-754 650,-754"/>
<text text-anchor="middle" x="696" y="-898.1" font-family="Times Roman,serif" font-size="11.00" fill="gray">ProductFeed</text>
</g>
<g id="graph8" class="cluster"><title>cluster_\Econda\ProductFeed\Description</title>
<polyline fill="none" stroke="gray" points="658,-808 734,-808 "/>
<path fill="none" stroke="gray" d="M734,-808C740,-808 746,-814 746,-820"/>
<polyline fill="none" stroke="gray" points="746,-820 746,-870 "/>
<path fill="none" stroke="gray" d="M746,-870C746,-876 740,-882 734,-882"/>
<polyline fill="none" stroke="gray" points="734,-882 658,-882 "/>
<path fill="none" stroke="gray" d="M658,-882C652,-882 646,-876 646,-870"/>
<polyline fill="none" stroke="gray" points="646,-870 646,-820 "/>
<path fill="none" stroke="gray" d="M646,-820C646,-814 652,-808 658,-808"/>
<text text-anchor="middle" x="696" y="-868.1" font-family="Times Roman,serif" font-size="11.00" fill="gray">Description</text>
</g>
<g id="graph9" class="cluster"><title>cluster_\Econda\RecEngine</title>
<polyline fill="none" stroke="gray" points="36,-114 790,-114 "/>
<path fill="none" stroke="gray" d="M790,-114C796,-114 802,-120 802,-126"/>
<polyline fill="none" stroke="gray" points="802,-126 802,-734 "/>
<path fill="none" stroke="gray" d="M802,-734C802,-740 796,-746 790,-746"/>
<polyline fill="none" stroke="gray" points="790,-746 36,-746 "/>
<path fill="none" stroke="gray" d="M36,-746C30,-746 24,-740 24,-734"/>
<polyline fill="none" stroke="gray" points="24,-734 24,-126 "/>
<path fill="none" stroke="gray" d="M24,-126C24,-120 30,-114 36,-114"/>
<text text-anchor="middle" x="413" y="-732.1" font-family="Times Roman,serif" font-size="11.00" fill="gray">RecEngine</text>
</g>
<g id="graph10" class="cluster"><title>cluster_\Econda\RecEngine\Client</title>
<polyline fill="none" stroke="gray" points="640,-476 752,-476 "/>
<path fill="none" stroke="gray" d="M752,-476C758,-476 764,-482 764,-488"/>
<polyline fill="none" stroke="gray" points="764,-488 764,-704 "/>
<path fill="none" stroke="gray" d="M764,-704C764,-710 758,-716 752,-716"/>
<polyline fill="none" stroke="gray" points="752,-716 640,-716 "/>
<path fill="none" stroke="gray" d="M640,-716C634,-716 628,-710 628,-704"/>
<polyline fill="none" stroke="gray" points="628,-704 628,-488 "/>
<path fill="none" stroke="gray" d="M628,-488C628,-482 634,-476 640,-476"/>
<text text-anchor="middle" x="696" y="-702.1" font-family="Times Roman,serif" font-size="11.00" fill="gray">Client</text>
</g>
<g id="graph11" class="cluster"><title>cluster_\Econda\RecEngine\Client\Request</title>
<polyline fill="none" stroke="gray" points="651,-612 741,-612 "/>
<path fill="none" stroke="gray" d="M741,-612C747,-612 753,-618 753,-624"/>
<polyline fill="none" stroke="gray" points="753,-624 753,-674 "/>
<path fill="none" stroke="gray" d="M753,-674C753,-680 747,-686 741,-686"/>
<polyline fill="none" stroke="gray" points="741,-686 651,-686 "/>
<path fill="none" stroke="gray" d="M651,-686C645,-686 639,-680 639,-674"/>
<polyline fill="none" stroke="gray" points="639,-674 639,-624 "/>
<path fill="none" stroke="gray" d="M639,-624C639,-618 645,-612 651,-612"/>
<text text-anchor="middle" x="696" y="-672.1" font-family="Times Roman,serif" font-size="11.00" fill="gray">Request</text>
</g>
<g id="graph12" class="cluster"><title>cluster_\Econda\RecEngine\Client\Response</title>
<polyline fill="none" stroke="gray" points="648,-530 744,-530 "/>
<path fill="none" stroke="gray" d="M744,-530C750,-530 756,-536 756,-542"/>
<polyline fill="none" stroke="gray" points="756,-542 756,-592 "/>
<path fill="none" stroke="gray" d="M756,-592C756,-598 750,-604 744,-604"/>
<polyline fill="none" stroke="gray" points="744,-604 648,-604 "/>
<path fill="none" stroke="gray" d="M648,-604C642,-604 636,-598 636,-592"/>
<polyline fill="none" stroke="gray" points="636,-592 636,-542 "/>
<path fill="none" stroke="gray" d="M636,-542C636,-536 642,-530 648,-530"/>
<text text-anchor="middle" x="696" y="-590.1" font-family="Times Roman,serif" font-size="11.00" fill="gray">Response</text>
</g>
<g id="graph13" class="cluster"><title>cluster_\Econda\RecEngine\Config</title>
<polyline fill="none" stroke="gray" points="335,-394 738,-394 "/>
<path fill="none" stroke="gray" d="M738,-394C744,-394 750,-400 750,-406"/>
<polyline fill="none" stroke="gray" points="750,-406 750,-456 "/>
<path fill="none" stroke="gray" d="M750,-456C750,-462 744,-468 738,-468"/>
<polyline fill="none" stroke="gray" points="738,-468 335,-468 "/>
<path fill="none" stroke="gray" d="M335,-468C329,-468 323,-462 323,-456"/>
<polyline fill="none" stroke="gray" points="323,-456 323,-406 "/>
<path fill="none" stroke="gray" d="M323,-406C323,-400 329,-394 335,-394"/>
<text text-anchor="middle" x="536.5" y="-454.1" font-family="Times Roman,serif" font-size="11.00" fill="gray">Config</text>
</g>
<g id="graph14" class="cluster"><title>cluster_\Econda\RecEngine\Context</title>
<polyline fill="none" stroke="gray" points="664,-258 728,-258 "/>
<path fill="none" stroke="gray" d="M728,-258C734,-258 740,-264 740,-270"/>
<polyline fill="none" stroke="gray" points="740,-270 740,-374 "/>
<path fill="none" stroke="gray" d="M740,-374C740,-380 734,-386 728,-386"/>
<polyline fill="none" stroke="gray" points="728,-386 664,-386 "/>
<path fill="none" stroke="gray" d="M664,-386C658,-386 652,-380 652,-374"/>
<polyline fill="none" stroke="gray" points="652,-374 652,-270 "/>
<path fill="none" stroke="gray" d="M652,-270C652,-264 658,-258 664,-258"/>
<text text-anchor="middle" x="696" y="-372.1" font-family="Times Roman,serif" font-size="11.00" fill="gray">Context</text>
</g>
<g id="graph15" class="cluster"><title>cluster_\Econda\RecEngine\Exception</title>
<polyline fill="none" stroke="gray" points="610,-122 782,-122 "/>
<path fill="none" stroke="gray" d="M782,-122C788,-122 794,-128 794,-134"/>
<polyline fill="none" stroke="gray" points="794,-134 794,-238 "/>
<path fill="none" stroke="gray" d="M794,-238C794,-244 788,-250 782,-250"/>
<polyline fill="none" stroke="gray" points="782,-250 610,-250 "/>
<path fill="none" stroke="gray" d="M610,-250C604,-250 598,-244 598,-238"/>
<polyline fill="none" stroke="gray" points="598,-238 598,-134 "/>
<path fill="none" stroke="gray" d="M598,-134C598,-128 604,-122 610,-122"/>
<text text-anchor="middle" x="696" y="-236.1" font-family="Times Roman,serif" font-size="11.00" fill="gray">Exception</text>
</g>
<g id="graph16" class="cluster"><title>cluster_\Econda\RecEngine\Widget</title>
<polyline fill="none" stroke="gray" points="44,-476 450,-476 "/>
<path fill="none" stroke="gray" d="M450,-476C456,-476 462,-482 462,-488"/>
<polyline fill="none" stroke="gray" points="462,-488 462,-704 "/>
<path fill="none" stroke="gray" d="M462,-704C462,-710 456,-716 450,-716"/>
<polyline fill="none" stroke="gray" points="450,-716 44,-716 "/>
<path fill="none" stroke="gray" d="M44,-716C38,-716 32,-710 32,-704"/>
<polyline fill="none" stroke="gray" points="32,-704 32,-488 "/>
<path fill="none" stroke="gray" d="M32,-488C32,-482 38,-476 44,-476"/>
<text text-anchor="middle" x="247" y="-702.1" font-family="Times Roman,serif" font-size="11.00" fill="gray">Widget</text>
</g>
<g id="graph17" class="cluster"><title>cluster_\Econda\RecEngine\Widget\Model</title>
<polyline fill="none" stroke="gray" points="338,-612 442,-612 "/>
<path fill="none" stroke="gray" d="M442,-612C448,-612 454,-618 454,-624"/>
<polyline fill="none" stroke="gray" points="454,-624 454,-674 "/>
<path fill="none" stroke="gray" d="M454,-674C454,-680 448,-686 442,-686"/>
<polyline fill="none" stroke="gray" points="442,-686 338,-686 "/>
<path fill="none" stroke="gray" d="M338,-686C332,-686 326,-680 326,-674"/>
<polyline fill="none" stroke="gray" points="326,-674 326,-624 "/>
<path fill="none" stroke="gray" d="M326,-624C326,-618 332,-612 338,-612"/>
<text text-anchor="middle" x="390" y="-672.1" font-family="Times Roman,serif" font-size="11.00" fill="gray">Model</text>
</g>
<g id="graph18" class="cluster"><title>cluster_\Econda\RecEngine\Widget\Renderer</title>
<polyline fill="none" stroke="gray" points="52,-530 435,-530 "/>
<path fill="none" stroke="gray" d="M435,-530C441,-530 447,-536 447,-542"/>
<polyline fill="none" stroke="gray" points="447,-542 447,-592 "/>
<path fill="none" stroke="gray" d="M447,-592C447,-598 441,-604 435,-604"/>
<polyline fill="none" stroke="gray" points="435,-604 52,-604 "/>
<path fill="none" stroke="gray" d="M52,-604C46,-604 40,-598 40,-592"/>
<polyline fill="none" stroke="gray" points="40,-592 40,-542 "/>
<path fill="none" stroke="gray" d="M40,-542C40,-536 46,-530 52,-530"/>
<text text-anchor="middle" x="243.5" y="-590.1" font-family="Times Roman,serif" font-size="11.00" fill="gray">Renderer</text>
</g>
<!-- \\Econda\\Catalog\\FieldDefinition\\AbstractField -->
<g id="node5" class="node"><title>\\Econda\\Catalog\\FieldDefinition\\AbstractField</title>
<polygon fill="none" stroke="black" points="748,-1100 644,-1100 644,-1064 748,-1064 748,-1100"/>
<text text-anchor="start" x="662" y="-1087.43" font-family="Courier,monospace" font-size="11.00">«abstract»</text>
<text text-anchor="start" x="652" y="-1074.23" font-family="Courier,monospace" font-size="11.00">AbstractField</text>
</g>
<!-- \\Econda\\Catalog\\CatalogInfo -->
<g id="node6" class="node"><title>\\Econda\\Catalog\\CatalogInfo</title>
<polygon fill="none" stroke="black" points="741,-1046 651,-1046 651,-1010 741,-1010 741,-1046"/>
<text text-anchor="middle" x="696" y="-1025.1" font-family="Courier,monospace" font-size="11.00">CatalogInfo</text>
</g>
<!-- \\Econda\\CatalogApi\\Client -->
<g id="node8" class="node"><title>\\Econda\\CatalogApi\\Client</title>
<polygon fill="none" stroke="black" points="724,-964 668,-964 668,-928 724,-928 724,-964"/>
<text text-anchor="middle" x="696" y="-943.1" font-family="Courier,monospace" font-size="11.00">Client</text>
</g>
<!-- \\Econda\\ProductFeed\\Description\\DataSource -->
<g id="node11" class="node"><title>\\Econda\\ProductFeed\\Description\\DataSource</title>
<polygon fill="none" stroke="black" points="738,-852 654,-852 654,-816 738,-816 738,-852"/>
<text text-anchor="middle" x="696" y="-831.1" font-family="Courier,monospace" font-size="11.00">DataSource</text>
</g>
<!-- \\Econda\\ProductFeed\\Description -->
<g id="node12" class="node"><title>\\Econda\\ProductFeed\\Description</title>
<polygon fill="none" stroke="black" points="741,-798 651,-798 651,-762 741,-762 741,-798"/>
<text text-anchor="middle" x="696" y="-777.1" font-family="Courier,monospace" font-size="11.00">Description</text>
</g>
<!-- \\Econda\\RecEngine\\Client\\Request\\RequestModel -->
<g id="node16" class="node"><title>\\Econda\\RecEngine\\Client\\Request\\RequestModel</title>
<polygon fill="none" stroke="black" points="745,-656 647,-656 647,-620 745,-620 745,-656"/>
<text text-anchor="middle" x="696" y="-635.1" font-family="Courier,monospace" font-size="11.00">RequestModel</text>
</g>
<!-- \\Econda\\RecEngine\\Client\\Response\\ResponseModel -->
<g id="node18" class="node"><title>\\Econda\\RecEngine\\Client\\Response\\ResponseModel</title>
<polygon fill="none" stroke="black" points="748,-574 644,-574 644,-538 748,-538 748,-574"/>
<text text-anchor="middle" x="696" y="-553.1" font-family="Courier,monospace" font-size="11.00">ResponseModel</text>
</g>
<!-- \\Econda\\RecEngine\\Widget\\Model\\ModelInterface -->
<g id="node31" class="node"><title>\\Econda\\RecEngine\\Widget\\Model\\ModelInterface</title>
<polygon fill="none" stroke="black" points="445,-656 335,-656 335,-620 445,-620 445,-656"/>
<text text-anchor="middle" x="390" y="-635.1" font-family="Courier,monospace" font-size="11.00">ModelInterface</text>
</g>
<!-- \\Econda\\RecEngine\\Client\\Response\\ResponseModel&#45;&gt;\\Econda\\RecEngine\\Widget\\Model\\ModelInterface -->
<g id="edge19" class="edge"><title>\\Econda\\RecEngine\\Client\\Response\\ResponseModel&#45;&gt;\\Econda\\RecEngine\\Widget\\Model\\ModelInterface</title>
<path fill="none" stroke="black" stroke-dasharray="1,5" d="M644.608,-574.024C612.958,-584.742 571.415,-598.127 534,-608 508.609,-614.7 480.382,-620.858 455.694,-625.828"/>
<polygon fill="none" stroke="black" points="454.833,-622.431 445.708,-627.813 456.198,-629.297 454.833,-622.431"/>
</g>
<!-- \\Econda\\RecEngine\\Client\\Client -->
<g id="node19" class="node"><title>\\Econda\\RecEngine\\Client\\Client</title>
<polygon fill="none" stroke="black" points="724,-520 668,-520 668,-484 724,-484 724,-520"/>
<text text-anchor="middle" x="696" y="-499.1" font-family="Courier,monospace" font-size="11.00">Client</text>
</g>
<!-- \\Econda\\RecEngine\\Config\\ArrayConfig -->
<g id="node21" class="node"><title>\\Econda\\RecEngine\\Config\\ArrayConfig</title>
<polygon fill="none" stroke="black" points="741,-438 651,-438 651,-402 741,-402 741,-438"/>
<text text-anchor="middle" x="696" y="-417.1" font-family="Courier,monospace" font-size="11.00">ArrayConfig</text>
</g>
<!-- \\Econda\\RecEngine\\Config\\ConfigInterface -->
<g id="node22" class="node"><title>\\Econda\\RecEngine\\Config\\ConfigInterface</title>
<polygon fill="none" stroke="black" points="449,-438 331,-438 331,-402 449,-402 449,-438"/>
<text text-anchor="middle" x="390" y="-417.1" font-family="Courier,monospace" font-size="11.00">ConfigInterface</text>
</g>
<!-- \\Econda\\RecEngine\\Config\\ArrayConfig&#45;&gt;\\Econda\\RecEngine\\Config\\ConfigInterface -->
<g id="edge21" class="edge"><title>\\Econda\\RecEngine\\Config\\ArrayConfig&#45;&gt;\\Econda\\RecEngine\\Config\\ConfigInterface</title>
<path fill="none" stroke="black" stroke-dasharray="1,5" d="M650.189,-420C599.701,-420 517.919,-420 459.522,-420"/>
<polygon fill="none" stroke="black" points="459.268,-416.5 449.268,-420 459.268,-423.5 459.268,-416.5"/>
</g>
<!-- \\Econda\\RecEngine\\Context\\Category -->
<g id="node24" class="node"><title>\\Econda\\RecEngine\\Context\\Category</title>
<polygon fill="none" stroke="black" points="731,-356 661,-356 661,-320 731,-320 731,-356"/>
<text text-anchor="middle" x="696" y="-335.1" font-family="Courier,monospace" font-size="11.00">Category</text>
</g>
<!-- \\Econda\\RecEngine\\Context\\Context -->
<g id="node25" class="node"><title>\\Econda\\RecEngine\\Context\\Context</title>
<polygon fill="none" stroke="black" points="728,-302 664,-302 664,-266 728,-266 728,-302"/>
<text text-anchor="middle" x="696" y="-281.1" font-family="Courier,monospace" font-size="11.00">Context</text>
</g>
<!-- \\Econda\\RecEngine\\Exception\\InvalidArgumentException -->
<g id="node27" class="node"><title>\\Econda\\RecEngine\\Exception\\InvalidArgumentException</title>
<polygon fill="none" stroke="black" points="785,-220 607,-220 607,-184 785,-184 785,-220"/>
<text text-anchor="middle" x="696" y="-199.1" font-family="Courier,monospace" font-size="11.00">InvalidArgumentException</text>
</g>
<!-- \\InvalidArgumentException -->
<g id="node39" class="node"><title>\\InvalidArgumentException</title>
<ellipse fill="none" stroke="black" cx="390" cy="-72" rx="143.043" ry="18.3848"/>
<text text-anchor="middle" x="390" y="-68.4" font-family="Times Roman,serif" font-size="14.00" fill="gray">\InvalidArgumentException</text>
</g>
<!-- \\Econda\\RecEngine\\Exception\\InvalidArgumentException&#45;&gt;\\InvalidArgumentException -->
<g id="edge23" class="edge"><title>\\Econda\\RecEngine\\Exception\\InvalidArgumentException&#45;&gt;\\InvalidArgumentException</title>
<path fill="none" stroke="black" d="M624.297,-183.957C615.358,-181.208 606.41,-178.207 598,-175 537.443,-151.907 470.877,-117.175 429.755,-94.5444"/>
<polygon fill="none" stroke="black" points="431.319,-91.4096 420.875,-89.6275 427.928,-97.5336 431.319,-91.4096"/>
</g>
<!-- \\Econda\\RecEngine\\Exception\\RuntimeException -->
<g id="node28" class="node"><title>\\Econda\\RecEngine\\Exception\\RuntimeException</title>
<polygon fill="none" stroke="black" points="758,-166 634,-166 634,-130 758,-130 758,-166"/>
<text text-anchor="middle" x="696" y="-145.1" font-family="Courier,monospace" font-size="11.00">RuntimeException</text>
</g>
<!-- \\RuntimeException -->
<g id="node41" class="node"><title>\\RuntimeException</title>
<ellipse fill="none" stroke="black" cx="390" cy="-18" rx="103.238" ry="18.3848"/>
<text text-anchor="middle" x="390" y="-14.4" font-family="Times Roman,serif" font-size="14.00" fill="gray">\RuntimeException</text>
</g>
<!-- \\Econda\\RecEngine\\Exception\\RuntimeException&#45;&gt;\\RuntimeException -->
<g id="edge25" class="edge"><title>\\Econda\\RecEngine\\Exception\\RuntimeException&#45;&gt;\\RuntimeException</title>
<path fill="none" stroke="black" d="M673.646,-129.82C643.716,-106.449 588.099,-66.3471 534,-45 518.375,-38.8344 501.229,-34.0531 484.386,-30.3522"/>
<polygon fill="none" stroke="black" points="485.022,-26.9096 474.518,-28.2957 483.594,-33.7624 485.022,-26.9096"/>
</g>
<!-- \\Econda\\RecEngine\\Widget\\Renderer\\AbstractRenderer -->
<g id="node33" class="node"><title>\\Econda\\RecEngine\\Widget\\Renderer\\AbstractRenderer</title>
<polygon fill="none" stroke="black" points="174,-574 48,-574 48,-538 174,-538 174,-574"/>
<text text-anchor="start" x="77" y="-561.433" font-family="Courier,monospace" font-size="11.00">«abstract»</text>
<text text-anchor="start" x="56.5" y="-548.233" font-family="Courier,monospace" font-size="11.00">AbstractRenderer</text>
</g>
<!-- \\Econda\\RecEngine\\Widget\\Renderer\\HtmlRenderer -->
<g id="node34" class="node"><title>\\Econda\\RecEngine\\Widget\\Renderer\\HtmlRenderer</title>
<polygon fill="none" stroke="black" points="439,-574 341,-574 341,-538 439,-538 439,-574"/>
<text text-anchor="middle" x="390" y="-553.1" font-family="Courier,monospace" font-size="11.00">HtmlRenderer</text>
</g>
<!-- \\Econda\\RecEngine\\Widget\\Renderer\\HtmlRenderer&#45;&gt;\\Econda\\RecEngine\\Widget\\Renderer\\AbstractRenderer -->
<g id="edge27" class="edge"><title>\\Econda\\RecEngine\\Widget\\Renderer\\HtmlRenderer&#45;&gt;\\Econda\\RecEngine\\Widget\\Renderer\\AbstractRenderer</title>
<path fill="none" stroke="black" d="M340.763,-556C297.459,-556 233.821,-556 184.492,-556"/>
<polygon fill="none" stroke="black" points="184.196,-552.5 174.196,-556 184.196,-559.5 184.196,-552.5"/>
</g>
<!-- \\Econda\\RecEngine\\Widget\\Widget -->
<g id="node35" class="node"><title>\\Econda\\RecEngine\\Widget\\Widget</title>
<polygon fill="none" stroke="black" points="418,-520 362,-520 362,-484 418,-484 418,-520"/>
<text text-anchor="middle" x="390" y="-499.1" font-family="Courier,monospace" font-size="11.00">Widget</text>
</g>
</g>
</svg>
