<?xml version="1.0" encoding="UTF-8" standalone="no"?>
<!DOCTYPE svg PUBLIC "-//W3C//DTD SVG 1.1//EN"
 "http://www.w3.org/Graphics/SVG/1.1/DTD/svg11.dtd">
<!-- Generated by graphviz version 2.26.3 (20100126.1600)
 -->
<!-- Title: G Pages: 1 -->
<svg width="834pt" height="1140pt"
 viewBox="0.00 0.00 834.00 1140.00" xmlns="http://www.w3.org/2000/svg" xmlns:xlink="http://www.w3.org/1999/xlink">
<g id="graph1" class="graph" transform="scale(1 1) rotate(0) translate(4 1136)">
<title>G</title>
<polygon fill="white" stroke="white" points="-4,5 -4,-1136 831,-1136 831,5 -4,5"/>
<g id="graph2" class="cluster"><title>cluster_Global</title>
<polyline fill="none" stroke="gray" points="20,-98 806,-98 "/>
<path fill="none" stroke="gray" d="M806,-98C812,-98 818,-104 818,-110"/>
<polyline fill="none" stroke="gray" points="818,-110 818,-1112 "/>
<path fill="none" stroke="gray" d="M818,-1112C818,-1118 812,-1124 806,-1124"/>
<polyline fill="none" stroke="gray" points="806,-1124 20,-1124 "/>
<path fill="none" stroke="gray" d="M20,-1124C14,-1124 8,-1118 8,-1112"/>
<polyline fill="none" stroke="gray" points="8,-1112 8,-110 "/>
<path fill="none" stroke="gray" d="M8,-110C8,-104 14,-98 20,-98"/>
<text text-anchor="middle" x="413" y="-1110.1" font-family="Times Roman,serif" font-size="11.00" fill="gray">\</text>
</g>
<g id="graph3" class="cluster"><title>cluster_\Econda</title>
<polyline fill="none" stroke="gray" points="28,-258 798,-258 "/>
<path fill="none" stroke="gray" d="M798,-258C804,-258 810,-264 810,-270"/>
<polyline fill="none" stroke="gray" points="810,-270 810,-1082 "/>
<path fill="none" stroke="gray" d="M810,-1082C810,-1088 804,-1094 798,-1094"/>
<polyline fill="none" stroke="gray" points="798,-1094 28,-1094 "/>
<path fill="none" stroke="gray" d="M28,-1094C22,-1094 16,-1088 16,-1082"/>
<polyline fill="none" stroke="gray" points="16,-1082 16,-270 "/>
<path fill="none" stroke="gray" d="M16,-270C16,-264 22,-258 28,-258"/>
<text text-anchor="middle" x="413" y="-1080.1" font-family="Times Roman,serif" font-size="11.00" fill="gray">Econda</text>
</g>
<g id="graph4" class="cluster"><title>cluster_\Econda\ProductFeed</title>
<polyline fill="none" stroke="gray" points="650,-906 742,-906 "/>
<path fill="none" stroke="gray" d="M742,-906C748,-906 754,-912 754,-918"/>
<polyline fill="none" stroke="gray" points="754,-918 754,-1052 "/>
<path fill="none" stroke="gray" d="M754,-1052C754,-1058 748,-1064 742,-1064"/>
<polyline fill="none" stroke="gray" points="742,-1064 650,-1064 "/>
<path fill="none" stroke="gray" d="M650,-1064C644,-1064 638,-1058 638,-1052"/>
<polyline fill="none" stroke="gray" points="638,-1052 638,-918 "/>
<path fill="none" stroke="gray" d="M638,-918C638,-912 644,-906 650,-906"/>
<text text-anchor="middle" x="696" y="-1050.1" font-family="Times Roman,serif" font-size="11.00" fill="gray">ProductFeed</text>
</g>
<g id="graph5" class="cluster"><title>cluster_\Econda\ProductFeed\Description</title>
<polyline fill="none" stroke="gray" points="658,-960 734,-960 "/>
<path fill="none" stroke="gray" d="M734,-960C740,-960 746,-966 746,-972"/>
<polyline fill="none" stroke="gray" points="746,-972 746,-1022 "/>
<path fill="none" stroke="gray" d="M746,-1022C746,-1028 740,-1034 734,-1034"/>
<polyline fill="none" stroke="gray" points="734,-1034 658,-1034 "/>
<path fill="none" stroke="gray" d="M658,-1034C652,-1034 646,-1028 646,-1022"/>
<polyline fill="none" stroke="gray" points="646,-1022 646,-972 "/>
<path fill="none" stroke="gray" d="M646,-972C646,-966 652,-960 658,-960"/>
<text text-anchor="middle" x="696" y="-1020.1" font-family="Times Roman,serif" font-size="11.00" fill="gray">Description</text>
</g>
<g id="graph6" class="cluster"><title>cluster_\Econda\RecEngine</title>
<polyline fill="none" stroke="gray" points="36,-266 790,-266 "/>
<path fill="none" stroke="gray" d="M790,-266C796,-266 802,-272 802,-278"/>
<polyline fill="none" stroke="gray" points="802,-278 802,-886 "/>
<path fill="none" stroke="gray" d="M802,-886C802,-892 796,-898 790,-898"/>
<polyline fill="none" stroke="gray" points="790,-898 36,-898 "/>
<path fill="none" stroke="gray" d="M36,-898C30,-898 24,-892 24,-886"/>
<polyline fill="none" stroke="gray" points="24,-886 24,-278 "/>
<path fill="none" stroke="gray" d="M24,-278C24,-272 30,-266 36,-266"/>
<text text-anchor="middle" x="413" y="-884.1" font-family="Times Roman,serif" font-size="11.00" fill="gray">RecEngine</text>
</g>
<g id="graph7" class="cluster"><title>cluster_\Econda\RecEngine\Client</title>
<polyline fill="none" stroke="gray" points="640,-628 752,-628 "/>
<path fill="none" stroke="gray" d="M752,-628C758,-628 764,-634 764,-640"/>
<polyline fill="none" stroke="gray" points="764,-640 764,-856 "/>
<path fill="none" stroke="gray" d="M764,-856C764,-862 758,-868 752,-868"/>
<polyline fill="none" stroke="gray" points="752,-868 640,-868 "/>
<path fill="none" stroke="gray" d="M640,-868C634,-868 628,-862 628,-856"/>
<polyline fill="none" stroke="gray" points="628,-856 628,-640 "/>
<path fill="none" stroke="gray" d="M628,-640C628,-634 634,-628 640,-628"/>
<text text-anchor="middle" x="696" y="-854.1" font-family="Times Roman,serif" font-size="11.00" fill="gray">Client</text>
</g>
<g id="graph8" class="cluster"><title>cluster_\Econda\RecEngine\Client\Request</title>
<polyline fill="none" stroke="gray" points="651,-764 741,-764 "/>
<path fill="none" stroke="gray" d="M741,-764C747,-764 753,-770 753,-776"/>
<polyline fill="none" stroke="gray" points="753,-776 753,-826 "/>
<path fill="none" stroke="gray" d="M753,-826C753,-832 747,-838 741,-838"/>
<polyline fill="none" stroke="gray" points="741,-838 651,-838 "/>
<path fill="none" stroke="gray" d="M651,-838C645,-838 639,-832 639,-826"/>
<polyline fill="none" stroke="gray" points="639,-826 639,-776 "/>
<path fill="none" stroke="gray" d="M639,-776C639,-770 645,-764 651,-764"/>
<text text-anchor="middle" x="696" y="-824.1" font-family="Times Roman,serif" font-size="11.00" fill="gray">Request</text>
</g>
<g id="graph9" class="cluster"><title>cluster_\Econda\RecEngine\Client\Response</title>
<polyline fill="none" stroke="gray" points="648,-682 744,-682 "/>
<path fill="none" stroke="gray" d="M744,-682C750,-682 756,-688 756,-694"/>
<polyline fill="none" stroke="gray" points="756,-694 756,-744 "/>
<path fill="none" stroke="gray" d="M756,-744C756,-750 750,-756 744,-756"/>
<polyline fill="none" stroke="gray" points="744,-756 648,-756 "/>
<path fill="none" stroke="gray" d="M648,-756C642,-756 636,-750 636,-744"/>
<polyline fill="none" stroke="gray" points="636,-744 636,-694 "/>
<path fill="none" stroke="gray" d="M636,-694C636,-688 642,-682 648,-682"/>
<text text-anchor="middle" x="696" y="-742.1" font-family="Times Roman,serif" font-size="11.00" fill="gray">Response</text>
</g>
<g id="graph10" class="cluster"><title>cluster_\Econda\RecEngine\Config</title>
<polyline fill="none" stroke="gray" points="335,-546 738,-546 "/>
<path fill="none" stroke="gray" d="M738,-546C744,-546 750,-552 750,-558"/>
<polyline fill="none" stroke="gray" points="750,-558 750,-608 "/>
<path fill="none" stroke="gray" d="M750,-608C750,-614 744,-620 738,-620"/>
<polyline fill="none" stroke="gray" points="738,-620 335,-620 "/>
<path fill="none" stroke="gray" d="M335,-620C329,-620 323,-614 323,-608"/>
<polyline fill="none" stroke="gray" points="323,-608 323,-558 "/>
<path fill="none" stroke="gray" d="M323,-558C323,-552 329,-546 335,-546"/>
<text text-anchor="middle" x="536.5" y="-606.1" font-family="Times Roman,serif" font-size="11.00" fill="gray">Config</text>
</g>
<g id="graph11" class="cluster"><title>cluster_\Econda\RecEngine\Context</title>
<polyline fill="none" stroke="gray" points="664,-410 728,-410 "/>
<path fill="none" stroke="gray" d="M728,-410C734,-410 740,-416 740,-422"/>
<polyline fill="none" stroke="gray" points="740,-422 740,-526 "/>
<path fill="none" stroke="gray" d="M740,-526C740,-532 734,-538 728,-538"/>
<polyline fill="none" stroke="gray" points="728,-538 664,-538 "/>
<path fill="none" stroke="gray" d="M664,-538C658,-538 652,-532 652,-526"/>
<polyline fill="none" stroke="gray" points="652,-526 652,-422 "/>
<path fill="none" stroke="gray" d="M652,-422C652,-416 658,-410 664,-410"/>
<text text-anchor="middle" x="696" y="-524.1" font-family="Times Roman,serif" font-size="11.00" fill="gray">Context</text>
</g>
<g id="graph12" class="cluster"><title>cluster_\Econda\RecEngine\Exception</title>
<polyline fill="none" stroke="gray" points="610,-274 782,-274 "/>
<path fill="none" stroke="gray" d="M782,-274C788,-274 794,-280 794,-286"/>
<polyline fill="none" stroke="gray" points="794,-286 794,-390 "/>
<path fill="none" stroke="gray" d="M794,-390C794,-396 788,-402 782,-402"/>
<polyline fill="none" stroke="gray" points="782,-402 610,-402 "/>
<path fill="none" stroke="gray" d="M610,-402C604,-402 598,-396 598,-390"/>
<polyline fill="none" stroke="gray" points="598,-390 598,-286 "/>
<path fill="none" stroke="gray" d="M598,-286C598,-280 604,-274 610,-274"/>
<text text-anchor="middle" x="696" y="-388.1" font-family="Times Roman,serif" font-size="11.00" fill="gray">Exception</text>
</g>
<g id="graph13" class="cluster"><title>cluster_\Econda\RecEngine\Widget</title>
<polyline fill="none" stroke="gray" points="44,-628 450,-628 "/>
<path fill="none" stroke="gray" d="M450,-628C456,-628 462,-634 462,-640"/>
<polyline fill="none" stroke="gray" points="462,-640 462,-856 "/>
<path fill="none" stroke="gray" d="M462,-856C462,-862 456,-868 450,-868"/>
<polyline fill="none" stroke="gray" points="450,-868 44,-868 "/>
<path fill="none" stroke="gray" d="M44,-868C38,-868 32,-862 32,-856"/>
<polyline fill="none" stroke="gray" points="32,-856 32,-640 "/>
<path fill="none" stroke="gray" d="M32,-640C32,-634 38,-628 44,-628"/>
<text text-anchor="middle" x="247" y="-854.1" font-family="Times Roman,serif" font-size="11.00" fill="gray">Widget</text>
</g>
<g id="graph14" class="cluster"><title>cluster_\Econda\RecEngine\Widget\Model</title>
<polyline fill="none" stroke="gray" points="338,-764 442,-764 "/>
<path fill="none" stroke="gray" d="M442,-764C448,-764 454,-770 454,-776"/>
<polyline fill="none" stroke="gray" points="454,-776 454,-826 "/>
<path fill="none" stroke="gray" d="M454,-826C454,-832 448,-838 442,-838"/>
<polyline fill="none" stroke="gray" points="442,-838 338,-838 "/>
<path fill="none" stroke="gray" d="M338,-838C332,-838 326,-832 326,-826"/>
<polyline fill="none" stroke="gray" points="326,-826 326,-776 "/>
<path fill="none" stroke="gray" d="M326,-776C326,-770 332,-764 338,-764"/>
<text text-anchor="middle" x="390" y="-824.1" font-family="Times Roman,serif" font-size="11.00" fill="gray">Model</text>
</g>
<g id="graph15" class="cluster"><title>cluster_\Econda\RecEngine\Widget\Renderer</title>
<polyline fill="none" stroke="gray" points="52,-682 435,-682 "/>
<path fill="none" stroke="gray" d="M435,-682C441,-682 447,-688 447,-694"/>
<polyline fill="none" stroke="gray" points="447,-694 447,-744 "/>
<path fill="none" stroke="gray" d="M447,-744C447,-750 441,-756 435,-756"/>
<polyline fill="none" stroke="gray" points="435,-756 52,-756 "/>
<path fill="none" stroke="gray" d="M52,-756C46,-756 40,-750 40,-744"/>
<polyline fill="none" stroke="gray" points="40,-744 40,-694 "/>
<path fill="none" stroke="gray" d="M40,-694C40,-688 46,-682 52,-682"/>
<text text-anchor="middle" x="243.5" y="-742.1" font-family="Times Roman,serif" font-size="11.00" fill="gray">Renderer</text>
</g>
<!-- \\Econda\\ProductFeed\\Description\\DataSource -->
<g id="node5" class="node"><title>\\Econda\\ProductFeed\\Description\\DataSource</title>
<polygon fill="none" stroke="black" points="738,-1004 654,-1004 654,-968 738,-968 738,-1004"/>
<text text-anchor="middle" x="696" y="-983.1" font-family="Courier,monospace" font-size="11.00">DataSource</text>
</g>
<!-- \\Econda\\ProductFeed\\Description -->
<g id="node6" class="node"><title>\\Econda\\ProductFeed\\Description</title>
<polygon fill="none" stroke="black" points="741,-950 651,-950 651,-914 741,-914 741,-950"/>
<text text-anchor="middle" x="696" y="-929.1" font-family="Courier,monospace" font-size="11.00">Description</text>
</g>
<!-- \\Econda\\RecEngine\\Client\\Request\\RequestModel -->
<g id="node10" class="node"><title>\\Econda\\RecEngine\\Client\\Request\\RequestModel</title>
<polygon fill="none" stroke="black" points="745,-808 647,-808 647,-772 745,-772 745,-808"/>
<text text-anchor="middle" x="696" y="-787.1" font-family="Courier,monospace" font-size="11.00">RequestModel</text>
</g>
<!-- \\Econda\\RecEngine\\Client\\Response\\ResponseModel -->
<g id="node12" class="node"><title>\\Econda\\RecEngine\\Client\\Response\\ResponseModel</title>
<polygon fill="none" stroke="black" points="748,-726 644,-726 644,-690 748,-690 748,-726"/>
<text text-anchor="middle" x="696" y="-705.1" font-family="Courier,monospace" font-size="11.00">ResponseModel</text>
</g>
<!-- \\Econda\\RecEngine\\Widget\\Model\\ModelInterface -->
<g id="node25" class="node"><title>\\Econda\\RecEngine\\Widget\\Model\\ModelInterface</title>
<polygon fill="none" stroke="black" points="445,-808 335,-808 335,-772 445,-772 445,-808"/>
<text text-anchor="middle" x="390" y="-787.1" font-family="Courier,monospace" font-size="11.00">ModelInterface</text>
</g>
<!-- \\Econda\\RecEngine\\Client\\Response\\ResponseModel&#45;&gt;\\Econda\\RecEngine\\Widget\\Model\\ModelInterface -->
<g id="edge16" class="edge"><title>\\Econda\\RecEngine\\Client\\Response\\ResponseModel&#45;&gt;\\Econda\\RecEngine\\Widget\\Model\\ModelInterface</title>
<path fill="none" stroke="black" stroke-dasharray="1,5" d="M644.608,-726.024C612.958,-736.742 571.415,-750.127 534,-760 508.609,-766.7 480.382,-772.858 455.694,-777.828"/>
<polygon fill="none" stroke="black" points="454.833,-774.431 445.708,-779.813 456.198,-781.297 454.833,-774.431"/>
</g>
<!-- \\Econda\\RecEngine\\Client\\Client -->
<g id="node13" class="node"><title>\\Econda\\RecEngine\\Client\\Client</title>
<polygon fill="none" stroke="black" points="724,-672 668,-672 668,-636 724,-636 724,-672"/>
<text text-anchor="middle" x="696" y="-651.1" font-family="Courier,monospace" font-size="11.00">Client</text>
</g>
<!-- \\Econda\\RecEngine\\Config\\ArrayConfig -->
<g id="node15" class="node"><title>\\Econda\\RecEngine\\Config\\ArrayConfig</title>
<polygon fill="none" stroke="black" points="741,-590 651,-590 651,-554 741,-554 741,-590"/>
<text text-anchor="middle" x="696" y="-569.1" font-family="Courier,monospace" font-size="11.00">ArrayConfig</text>
</g>
<!-- \\Econda\\RecEngine\\Config\\ConfigInterface -->
<g id="node16" class="node"><title>\\Econda\\RecEngine\\Config\\ConfigInterface</title>
<polygon fill="none" stroke="black" points="449,-590 331,-590 331,-554 449,-554 449,-590"/>
<text text-anchor="middle" x="390" y="-569.1" font-family="Courier,monospace" font-size="11.00">ConfigInterface</text>
</g>
<!-- \\Econda\\RecEngine\\Config\\ArrayConfig&#45;&gt;\\Econda\\RecEngine\\Config\\ConfigInterface -->
<g id="edge18" class="edge"><title>\\Econda\\RecEngine\\Config\\ArrayConfig&#45;&gt;\\Econda\\RecEngine\\Config\\ConfigInterface</title>
<path fill="none" stroke="black" stroke-dasharray="1,5" d="M650.189,-572C599.701,-572 517.919,-572 459.522,-572"/>
<polygon fill="none" stroke="black" points="459.268,-568.5 449.268,-572 459.268,-575.5 459.268,-568.5"/>
</g>
<!-- \\Econda\\RecEngine\\Context\\Category -->
<g id="node18" class="node"><title>\\Econda\\RecEngine\\Context\\Category</title>
<polygon fill="none" stroke="black" points="731,-508 661,-508 661,-472 731,-472 731,-508"/>
<text text-anchor="middle" x="696" y="-487.1" font-family="Courier,monospace" font-size="11.00">Category</text>
</g>
<!-- \\Econda\\RecEngine\\Context\\Context -->
<g id="node19" class="node"><title>\\Econda\\RecEngine\\Context\\Context</title>
<polygon fill="none" stroke="black" points="728,-454 664,-454 664,-418 728,-418 728,-454"/>
<text text-anchor="middle" x="696" y="-433.1" font-family="Courier,monospace" font-size="11.00">Context</text>
</g>
<!-- \\Econda\\RecEngine\\Exception\\InvalidArgumentException -->
<g id="node21" class="node"><title>\\Econda\\RecEngine\\Exception\\InvalidArgumentException</title>
<polygon fill="none" stroke="black" points="785,-372 607,-372 607,-336 785,-336 785,-372"/>
<text text-anchor="middle" x="696" y="-351.1" font-family="Courier,monospace" font-size="11.00">InvalidArgumentException</text>
</g>
<!-- \\InvalidArgumentException -->
<g id="node36" class="node"><title>\\InvalidArgumentException</title>
<ellipse fill="none" stroke="black" cx="390" cy="-72" rx="143.043" ry="18.3848"/>
<text text-anchor="middle" x="390" y="-68.4" font-family="Times Roman,serif" font-size="14.00" fill="gray">\InvalidArgumentException</text>
</g>
<!-- \\Econda\\RecEngine\\Exception\\InvalidArgumentException&#45;&gt;\\InvalidArgumentException -->
<g id="edge20" class="edge"><title>\\Econda\\RecEngine\\Exception\\InvalidArgumentException&#45;&gt;\\InvalidArgumentException</title>
<path fill="none" stroke="black" d="M614.563,-335.918C608.766,-333.329 603.174,-330.373 598,-327 505.186,-266.496 433.629,-151.325 404.385,-99.0325"/>
<polygon fill="none" stroke="black" points="407.314,-97.0957 399.421,-90.0275 401.184,-100.475 407.314,-97.0957"/>
</g>
<!-- \\Econda\\RecEngine\\Exception\\RuntimeException -->
<g id="node22" class="node"><title>\\Econda\\RecEngine\\Exception\\RuntimeException</title>
<polygon fill="none" stroke="black" points="758,-318 634,-318 634,-282 758,-282 758,-318"/>
<text text-anchor="middle" x="696" y="-297.1" font-family="Courier,monospace" font-size="11.00">RuntimeException</text>
</g>
<!-- \\RuntimeException -->
<g id="node38" class="node"><title>\\RuntimeException</title>
<ellipse fill="none" stroke="black" cx="390" cy="-18" rx="103.238" ry="18.3848"/>
<text text-anchor="middle" x="390" y="-14.4" font-family="Times Roman,serif" font-size="14.00" fill="gray">\RuntimeException</text>
</g>
<!-- \\Econda\\RecEngine\\Exception\\RuntimeException&#45;&gt;\\RuntimeException -->
<g id="edge22" class="edge"><title>\\Econda\\RecEngine\\Exception\\RuntimeException&#45;&gt;\\RuntimeException</title>
<path fill="none" stroke="black" d="M633.26,-296.299C620.288,-292.876 607.653,-287.207 598,-278 520.291,-203.878 613.012,-117.732 534,-45 524.307,-36.0771 512.641,-29.6597 500.198,-25.0991"/>
<polygon fill="none" stroke="black" points="501.142,-21.726 490.55,-21.9628 498.978,-28.3831 501.142,-21.726"/>
</g>
<!-- \\Econda\\RecEngine\\Widget\\Renderer\\AbstractRenderer -->
<g id="node27" class="node"><title>\\Econda\\RecEngine\\Widget\\Renderer\\AbstractRenderer</title>
<polygon fill="none" stroke="black" points="174,-726 48,-726 48,-690 174,-690 174,-726"/>
<text text-anchor="start" x="77" y="-713.433" font-family="Courier,monospace" font-size="11.00">«abstract»</text>
<text text-anchor="start" x="56.5" y="-700.233" font-family="Courier,monospace" font-size="11.00">AbstractRenderer</text>
</g>
<!-- \\Econda\\RecEngine\\Widget\\Renderer\\HtmlRenderer -->
<g id="node28" class="node"><title>\\Econda\\RecEngine\\Widget\\Renderer\\HtmlRenderer</title>
<polygon fill="none" stroke="black" points="439,-726 341,-726 341,-690 439,-690 439,-726"/>
<text text-anchor="middle" x="390" y="-705.1" font-family="Courier,monospace" font-size="11.00">HtmlRenderer</text>
</g>
<!-- \\Econda\\RecEngine\\Widget\\Renderer\\HtmlRenderer&#45;&gt;\\Econda\\RecEngine\\Widget\\Renderer\\AbstractRenderer -->
<g id="edge24" class="edge"><title>\\Econda\\RecEngine\\Widget\\Renderer\\HtmlRenderer&#45;&gt;\\Econda\\RecEngine\\Widget\\Renderer\\AbstractRenderer</title>
<path fill="none" stroke="black" d="M340.763,-708C297.459,-708 233.821,-708 184.492,-708"/>
<polygon fill="none" stroke="black" points="184.196,-704.5 174.196,-708 184.196,-711.5 184.196,-704.5"/>
</g>
<!-- \\Econda\\RecEngine\\Widget\\Widget -->
<g id="node29" class="node"><title>\\Econda\\RecEngine\\Widget\\Widget</title>
<polygon fill="none" stroke="black" points="418,-672 362,-672 362,-636 418,-636 418,-672"/>
<text text-anchor="middle" x="390" y="-651.1" font-family="Courier,monospace" font-size="11.00">Widget</text>
</g>
<!-- \\CatalogInfo -->
<g id="node30" class="node"><title>\\CatalogInfo</title>
<polygon fill="none" stroke="black" points="741,-250 651,-250 651,-214 741,-214 741,-250"/>
<text text-anchor="middle" x="696" y="-229.1" font-family="Courier,monospace" font-size="11.00">CatalogInfo</text>
</g>
<!-- \\AbstractField -->
<g id="node31" class="node"><title>\\AbstractField</title>
<polygon fill="none" stroke="black" points="748,-196 644,-196 644,-160 748,-160 748,-196"/>
<text text-anchor="start" x="662" y="-183.433" font-family="Courier,monospace" font-size="11.00">«abstract»</text>
<text text-anchor="start" x="652" y="-170.233" font-family="Courier,monospace" font-size="11.00">AbstractField</text>
</g>
<!-- \\Client -->
<g id="node32" class="node"><title>\\Client</title>
<polygon fill="none" stroke="black" points="724,-142 668,-142 668,-106 724,-106 724,-142"/>
<text text-anchor="middle" x="696" y="-121.1" font-family="Courier,monospace" font-size="11.00">Client</text>
</g>
</g>
</svg>
